ply
format ascii 1.0
comment Created by Blender 2.78 (sub 0) - www.blender.org, source file: ''
element vertex 538
property float x
property float y
property float z
property float nx
property float ny
property float nz
element face 196
property list uchar uint vertex_indices
end_header
-15.000000 -15.000000 0.000000 0.000000 0.000000 1.000000
-12.857143 -15.000000 0.000000 0.000000 0.000000 1.000000
-12.857143 -12.857143 0.000000 0.000000 0.000000 1.000000
-15.000000 -12.857143 0.000000 0.000000 0.000000 1.000000
-10.714287 -15.000000 0.000000 0.000000 0.000000 1.000000
-10.714287 -12.857143 0.000000 0.000000 0.000000 1.000000
-8.571429 -15.000000 0.000000 0.000000 0.000000 1.000000
-8.571429 -12.857143 0.000000 0.000000 0.000000 1.000000
-6.428572 -15.000000 0.000000 0.000000 0.000000 1.000000
-6.428572 -12.857143 0.000000 0.000000 0.000000 1.000000
-4.285715 -15.000000 0.000000 0.000000 0.000000 1.000000
-4.285715 -12.857143 0.000000 0.000000 0.000000 1.000000
-2.142857 -15.000000 0.000000 0.000000 0.000000 1.000000
-2.142857 -12.857143 0.000000 0.000000 0.000000 1.000000
-0.000000 -15.000000 0.000000 0.000000 0.000000 1.000000
-0.000000 -12.857143 0.000000 0.000000 0.000000 1.000000
2.142858 -15.000000 0.000000 0.000000 0.000000 1.000000
2.142858 -12.857143 0.000000 0.000000 0.000000 1.000000
4.285715 -15.000000 0.000000 0.000000 0.000000 1.000000
4.285715 -12.857143 0.000000 0.000000 0.000000 1.000000
6.428572 -15.000000 0.000000 0.000000 0.000000 1.000000
6.428572 -12.857143 0.000000 0.000000 0.000000 1.000000
8.571429 -15.000000 0.000000 0.000000 0.000000 1.000000
8.571429 -12.857143 0.000000 0.000000 0.000000 1.000000
10.714287 -15.000000 0.000000 0.000000 0.000000 1.000000
10.714287 -12.857143 0.000000 0.000000 0.000000 1.000000
12.857143 -15.000000 0.000000 0.000000 0.000000 1.000000
12.857143 -12.857143 0.000000 0.000000 0.000000 1.000000
14.999999 -15.000000 0.000000 0.000000 0.000000 1.000000
14.999999 -12.857143 0.000000 0.000000 0.000000 1.000000
-12.857143 -10.714287 0.000000 0.000000 0.000000 1.000000
-15.000000 -10.714287 0.000000 0.000000 0.000000 1.000000
-10.714287 -10.714287 0.000000 0.000000 0.000000 1.000000
-8.571429 -10.714287 0.000000 0.000000 0.000000 1.000000
-6.428572 -10.714287 0.000000 0.000000 0.000000 1.000000
-4.285715 -10.714287 0.000000 0.000000 0.000000 1.000000
-2.142857 -10.714287 0.000000 0.000000 0.000000 1.000000
-0.000000 -10.714287 0.000000 0.000000 0.000000 1.000000
2.142858 -10.714287 0.000000 0.000000 0.000000 1.000000
4.285715 -10.714287 0.000000 0.000000 0.000000 1.000000
6.428572 -10.714287 0.000000 0.000000 0.000000 1.000000
8.571429 -10.714287 0.000000 0.000000 0.000000 1.000000
10.714287 -10.714287 0.000000 0.000000 0.000000 1.000000
12.857143 -10.714287 0.000000 0.000000 0.000000 1.000000
14.999999 -10.714287 0.000000 0.000000 0.000000 1.000000
-12.857143 -8.571429 0.000000 0.000000 0.000000 1.000000
-15.000000 -8.571429 0.000000 0.000000 0.000000 1.000000
-10.714287 -8.571429 0.000000 0.000000 0.000000 1.000000
-8.571429 -8.571429 0.000000 0.000000 0.000000 1.000000
-6.428572 -8.571429 0.000000 0.000000 0.000000 1.000000
-4.285715 -8.571429 0.000000 0.000000 0.000000 1.000000
-2.142857 -8.571429 0.000000 0.000000 0.000000 1.000000
-2.142857 -10.714287 0.000000 -0.376931 -0.376931 0.846077
-0.000000 -10.714287 0.000000 -0.376931 -0.376931 0.846077
-0.000000 -8.571429 1.909306 -0.376931 -0.376931 0.846077
-2.142857 -8.571429 0.000000 -0.376931 -0.376931 0.846077
-0.000000 -10.714287 0.000000 0.000000 -0.665248 0.746623
2.142858 -10.714287 0.000000 0.000000 -0.665248 0.746623
2.142858 -8.571429 1.909306 0.000000 -0.665248 0.746623
-0.000000 -8.571429 1.909306 0.000000 -0.665248 0.746623
2.142858 -10.714287 0.000000 -0.153063 -0.738322 0.656850
4.285715 -10.714287 0.000000 -0.153063 -0.738322 0.656850
4.285715 -8.571429 2.907989 -0.153063 -0.738322 0.656850
2.142858 -8.571429 1.909306 -0.153063 -0.738322 0.656850
4.285715 -10.714287 0.000000 0.153063 -0.738322 0.656850
6.428572 -10.714287 0.000000 0.153063 -0.738322 0.656850
6.428572 -8.571429 1.909306 0.153063 -0.738322 0.656850
4.285715 -8.571429 2.907989 0.153063 -0.738322 0.656850
6.428572 -10.714287 0.000000 0.376931 -0.376931 0.846077
8.571429 -10.714287 0.000000 0.376931 -0.376931 0.846077
8.571429 -8.571429 0.000000 0.376931 -0.376931 0.846077
6.428572 -8.571429 1.909306 0.376931 -0.376931 0.846077
10.714287 -8.571429 0.000000 0.000000 0.000000 1.000000
8.571429 -8.571429 0.000000 0.000000 0.000000 1.000000
12.857143 -8.571429 0.000000 0.000000 0.000000 1.000000
14.999999 -8.571429 0.000000 0.000000 0.000000 1.000000
-12.857143 -6.428572 0.000000 0.000000 0.000000 1.000000
-15.000000 -6.428572 0.000000 0.000000 0.000000 1.000000
-10.714287 -6.428572 0.000000 0.000000 0.000000 1.000000
-8.571429 -6.428572 0.000000 0.000000 0.000000 1.000000
-6.428572 -6.428572 0.000000 0.000000 0.000000 1.000000
-4.285715 -6.428572 0.000000 0.000000 0.000000 1.000000
-4.285715 -8.571429 0.000000 -0.376931 -0.376931 0.846077
-2.142857 -6.428572 1.909306 -0.376931 -0.376931 0.846077
-4.285715 -6.428572 0.000000 -0.376931 -0.376931 0.846077
-0.000000 -6.428572 1.909306 -0.376931 -0.376931 0.846077
-0.000000 -8.571429 1.909306 0.376931 0.376931 0.846077
2.142858 -8.571429 1.909306 0.376931 0.376931 0.846077
2.142858 -6.428572 0.000000 0.376931 0.376931 0.846077
-0.000000 -6.428572 1.909306 0.376931 0.376931 0.846077
2.142858 -8.571429 1.909306 -0.489584 0.489584 0.721536
4.285715 -8.571429 2.907989 -0.489584 0.489584 0.721536
4.285715 -6.428572 1.909306 -0.489584 0.489584 0.721536
2.142858 -6.428572 0.000000 -0.489584 0.489584 0.721536
4.285715 -8.571429 2.907989 0.221318 0.221318 0.949756
6.428572 -8.571429 1.909306 0.221318 0.221318 0.949756
6.428572 -6.428572 1.909306 0.221318 0.221318 0.949756
4.285715 -6.428572 1.909306 0.221318 0.221318 0.949756
6.428572 -8.571429 1.909306 0.665248 0.000000 0.746623
8.571429 -8.571429 0.000000 0.665248 0.000000 0.746623
8.571429 -6.428572 0.000000 0.665248 0.000000 0.746623
6.428572 -6.428572 1.909306 0.665248 0.000000 0.746623
10.714287 -6.428572 0.000000 0.000000 0.000000 1.000000
8.571429 -6.428572 0.000000 0.000000 0.000000 1.000000
12.857143 -6.428572 0.000000 0.000000 0.000000 1.000000
14.999999 -6.428572 0.000000 0.000000 0.000000 1.000000
-12.857143 -4.285715 0.000000 0.000000 0.000000 1.000000
-15.000000 -4.285715 0.000000 0.000000 0.000000 1.000000
-10.714287 -4.285715 0.000000 0.000000 0.000000 1.000000
-8.571429 -4.285715 0.000000 0.000000 0.000000 1.000000
-8.571429 -6.428572 0.000000 -0.465567 -0.465567 0.752659
-6.428572 -6.428572 0.000000 -0.465567 -0.465567 0.752659
-6.428572 -4.285715 2.650983 -0.465567 -0.465567 0.752659
-8.571429 -4.285715 0.000000 -0.465567 -0.465567 0.752659
-6.428572 -6.428572 0.000000 0.465567 -0.465567 0.752659
-4.285715 -6.428572 0.000000 0.465567 -0.465567 0.752659
-4.285715 -4.285715 0.000000 0.465567 -0.465567 0.752659
-6.428572 -4.285715 2.650983 0.465567 -0.465567 0.752659
-4.285715 -6.428572 0.000000 -0.665248 0.000000 0.746623
-2.142857 -6.428572 1.909306 -0.665248 0.000000 0.746623
-2.142857 -4.285715 1.909306 -0.665248 0.000000 0.746623
-4.285715 -4.285715 0.000000 -0.665248 0.000000 0.746623
-2.142857 -6.428572 1.909306 0.000000 0.000000 1.000000
-0.000000 -6.428572 1.909306 0.000000 0.000000 1.000000
-0.000000 -4.285715 1.909306 0.000000 0.000000 1.000000
-2.142857 -4.285715 1.909306 0.000000 0.000000 1.000000
-0.000000 -6.428572 1.909306 0.067870 -0.625024 0.777650
2.142858 -6.428572 0.000000 0.067870 -0.625024 0.777650
2.142858 -4.285715 3.444575 0.067870 -0.625024 0.777650
-0.000000 -4.285715 1.909306 0.067870 -0.625024 0.777650
2.142858 -6.428572 0.000000 0.319560 -0.319560 0.892055
4.285715 -6.428572 1.909306 0.319560 -0.319560 0.892055
4.285715 -4.285715 0.000000 0.319560 -0.319560 0.892055
2.142858 -4.285715 3.444575 0.319560 -0.319560 0.892055
4.285715 -6.428572 1.909306 0.000000 0.665248 0.746623
6.428572 -6.428572 1.909306 0.000000 0.665248 0.746623
6.428572 -4.285715 0.000000 0.000000 0.665248 0.746623
4.285715 -4.285715 0.000000 0.000000 0.665248 0.746623
6.428572 -6.428572 1.909306 0.376931 0.376931 0.846077
8.571429 -6.428572 0.000000 0.376931 0.376931 0.846077
8.571429 -4.285715 0.000000 0.376931 0.376931 0.846077
6.428572 -4.285715 0.000000 0.376931 0.376931 0.846077
10.714287 -4.285715 0.000000 0.000000 0.000000 1.000000
8.571429 -4.285715 0.000000 0.000000 0.000000 1.000000
12.857143 -4.285715 0.000000 0.000000 0.000000 1.000000
14.999999 -4.285715 0.000000 0.000000 0.000000 1.000000
-12.857143 -2.142857 0.000000 0.000000 0.000000 1.000000
-15.000000 -2.142857 0.000000 0.000000 0.000000 1.000000
-10.714287 -2.142857 0.000000 0.000000 0.000000 1.000000
-10.714287 -4.285715 0.000000 -0.465567 -0.465567 0.752659
-8.571429 -2.142857 2.650983 -0.465567 -0.465567 0.752659
-10.714287 -2.142857 0.000000 -0.465567 -0.465567 0.752659
-6.428572 -2.142857 2.650983 -0.465567 -0.465567 0.752659
-6.428572 -4.285715 2.650983 0.777700 0.000000 0.628635
-4.285715 -4.285715 0.000000 0.777700 0.000000 0.628635
-4.285715 -2.142857 0.000000 0.777700 0.000000 0.628635
-6.428572 -2.142857 2.650983 0.777700 0.000000 0.628635
-4.285715 -4.285715 0.000000 -0.376931 0.376931 0.846077
-2.142857 -4.285715 1.909306 -0.376931 0.376931 0.846077
-2.142857 -2.142857 0.000000 -0.376931 0.376931 0.846077
-4.285715 -2.142857 0.000000 -0.376931 0.376931 0.846077
-0.000000 -4.285715 1.909306 -0.376931 0.376931 0.846077
-0.000000 -2.142857 1.909306 -0.376931 0.376931 0.846077
-0.000000 -4.285715 1.909306 -0.730813 -0.287156 0.619236
2.142858 -4.285715 3.444575 -0.730813 -0.287156 0.619236
2.142858 -2.142857 5.431973 -0.730813 -0.287156 0.619236
-0.000000 -2.142857 1.909306 -0.730813 -0.287156 0.619236
2.142858 -4.285715 3.444575 0.882768 -0.197646 0.426212
4.285715 -4.285715 0.000000 0.882768 -0.197646 0.426212
4.285715 -2.142857 0.000000 0.882768 -0.197646 0.426212
2.142858 -2.142857 5.431973 0.882768 -0.197646 0.426212
4.285715 -4.285715 0.000000 -0.385990 -0.385990 0.837868
6.428572 -4.285715 0.000000 -0.385990 -0.385990 0.837868
6.428572 -2.142857 1.974348 -0.385990 -0.385990 0.837868
4.285715 -2.142857 0.000000 -0.385990 -0.385990 0.837868
6.428572 -4.285715 0.000000 0.385990 -0.385990 0.837868
8.571429 -4.285715 0.000000 0.385990 -0.385990 0.837868
8.571429 -2.142857 0.000000 0.385990 -0.385990 0.837868
6.428572 -2.142857 1.974348 0.385990 -0.385990 0.837868
10.714287 -2.142857 0.000000 0.000000 0.000000 1.000000
8.571429 -2.142857 0.000000 0.000000 0.000000 1.000000
12.857143 -2.142857 0.000000 0.000000 0.000000 1.000000
14.999999 -2.142857 0.000000 0.000000 0.000000 1.000000
-12.857143 -0.000001 0.000000 0.000000 0.000000 1.000000
-15.000000 -0.000001 0.000000 0.000000 0.000000 1.000000
-10.714287 -0.000001 0.000000 0.000000 0.000000 1.000000
-10.714287 -2.142857 0.000000 -0.777700 0.000000 0.628635
-8.571429 -2.142857 2.650983 -0.777700 0.000000 0.628635
-8.571429 -0.000001 2.650983 -0.777700 0.000000 0.628635
-10.714287 -0.000001 0.000000 -0.777700 0.000000 0.628635
-8.571429 -2.142857 2.650983 0.000000 0.000000 1.000000
-6.428572 -2.142857 2.650983 0.000000 0.000000 1.000000
-6.428572 -0.000001 2.650983 0.000000 0.000000 1.000000
-8.571429 -0.000001 2.650983 0.000000 0.000000 1.000000
-6.428572 -2.142857 2.650983 0.465567 -0.465567 0.752659
-4.285715 -2.142857 0.000000 0.465567 -0.465567 0.752659
-4.285715 -0.000001 2.650983 0.465567 -0.465567 0.752659
-6.428572 -0.000001 2.650983 0.465567 -0.465567 0.752659
-4.285715 -2.142857 0.000000 0.465566 -0.465567 0.752659
-2.142857 -2.142857 0.000000 0.465566 -0.465567 0.752659
-2.142857 -0.000001 0.000000 0.465566 -0.465567 0.752659
-4.285715 -0.000001 2.650983 0.465566 -0.465567 0.752659
-2.142857 -2.142857 0.000000 -0.671451 -0.011245 0.740964
-0.000000 -2.142857 1.909306 -0.671451 -0.011245 0.740964
-0.000000 -0.000001 1.974348 -0.671451 -0.011245 0.740964
-2.142857 -0.000001 0.000000 -0.671451 -0.011245 0.740964
-0.000000 -2.142857 1.909306 -0.541717 0.521713 0.659059
2.142858 -2.142857 5.431973 -0.541717 0.521713 0.659059
2.142858 -0.000001 1.974348 -0.541717 0.521713 0.659059
-0.000000 -0.000001 1.974348 -0.541717 0.521713 0.659059
2.142858 -2.142857 5.431973 0.767631 0.209613 0.605645
4.285715 -2.142857 0.000000 0.767631 0.209613 0.605645
4.285715 -0.000001 1.974348 0.767631 0.209613 0.605645
2.142858 -0.000001 1.974348 0.767631 0.209613 0.605645
6.428572 -0.000001 1.974348 -0.385990 -0.385990 0.837868
4.285715 -0.000001 1.974348 -0.385990 -0.385990 0.837868
6.428572 -2.142857 1.974348 0.677599 0.000000 0.735432
8.571429 -2.142857 0.000000 0.677599 0.000000 0.735432
8.571429 -0.000001 0.000000 0.677599 0.000000 0.735432
6.428572 -0.000001 1.974348 0.677599 0.000000 0.735432
10.714287 -0.000001 0.000000 0.000000 0.000000 1.000000
8.571429 -0.000001 0.000000 0.000000 0.000000 1.000000
12.857143 -0.000001 0.000000 0.000000 0.000000 1.000000
14.999999 -0.000001 0.000000 0.000000 0.000000 1.000000
-12.857143 2.142857 0.000000 0.000000 0.000000 1.000000
-15.000000 2.142857 0.000000 0.000000 0.000000 1.000000
-10.714287 2.142857 0.000000 0.000000 0.000000 1.000000
-8.571429 2.142857 2.650983 -0.777700 0.000000 0.628635
-10.714287 2.142857 0.000000 -0.777700 0.000000 0.628635
-6.428572 2.142857 2.650983 0.000000 0.000000 1.000000
-8.571429 2.142857 2.650983 0.000000 0.000000 1.000000
-4.285715 -0.000001 2.650983 0.000000 0.000000 1.000000
-4.285715 2.142857 2.650983 0.000000 0.000000 1.000000
-2.142857 -0.000001 0.000000 0.465567 -0.465567 0.752659
-2.142857 2.142857 2.650983 0.465567 -0.465567 0.752659
-4.285715 2.142857 2.650983 0.465567 -0.465567 0.752659
-2.142857 -0.000001 0.000000 0.154087 -0.154087 0.975968
-0.000000 -0.000001 1.974348 0.154087 -0.154087 0.975968
-0.000000 2.142857 0.000000 0.154087 -0.154087 0.975968
-2.142857 2.142857 2.650983 0.154087 -0.154087 0.975968
-0.000000 -0.000001 1.974348 -0.385990 0.385990 0.837868
2.142858 -0.000001 1.974348 -0.385990 0.385990 0.837868
2.142858 2.142857 1.974348 -0.385990 0.385990 0.837868
-0.000000 2.142857 0.000000 -0.385990 0.385990 0.837868
2.142858 -0.000001 1.974348 -0.266897 -0.266897 0.926030
4.285715 -0.000001 1.974348 -0.266897 -0.266897 0.926030
4.285715 2.142857 3.209561 -0.266897 -0.266897 0.926030
2.142858 2.142857 1.974348 -0.266897 -0.266897 0.926030
4.285715 -0.000001 1.974348 0.084244 -0.433059 0.897420
6.428572 -0.000001 1.974348 0.084244 -0.433059 0.897420
6.428572 2.142857 2.807248 0.084244 -0.433059 0.897420
4.285715 2.142857 3.209561 0.084244 -0.433059 0.897420
6.428572 -0.000001 1.974348 0.738478 -0.128635 0.661893
8.571429 -0.000001 0.000000 0.738478 -0.128635 0.661893
8.571429 2.142857 0.000000 0.738478 -0.128635 0.661893
6.428572 2.142857 2.807248 0.738478 -0.128635 0.661893
10.714287 2.142857 0.000000 0.000000 0.000000 1.000000
8.571429 2.142857 0.000000 0.000000 0.000000 1.000000
12.857143 2.142857 0.000000 0.000000 0.000000 1.000000
14.999999 2.142857 0.000000 0.000000 0.000000 1.000000
-12.857143 4.285715 0.000000 0.000000 0.000000 1.000000
-15.000000 4.285715 0.000000 0.000000 0.000000 1.000000
-12.857143 2.142857 0.000000 -0.465567 -0.465567 0.752659
-10.714287 2.142857 0.000000 -0.465567 -0.465567 0.752659
-10.714287 4.285715 2.650983 -0.465567 -0.465567 0.752659
-12.857143 4.285715 0.000000 -0.465567 -0.465567 0.752659
-8.571429 2.142857 2.650983 -0.465567 -0.465567 0.752659
-8.571429 4.285715 2.650983 -0.465567 -0.465567 0.752659
-6.428572 4.285715 2.650983 0.000000 0.000000 1.000000
-8.571429 4.285715 2.650983 0.000000 0.000000 1.000000
-6.428572 2.142857 2.650983 0.465567 0.465567 0.752659
-4.285715 2.142857 2.650983 0.465567 0.465567 0.752659
-4.285715 4.285715 0.000000 0.465567 0.465567 0.752659
-6.428572 4.285715 2.650983 0.465567 0.465567 0.752659
-4.285715 2.142857 2.650983 -0.465567 0.465567 0.752659
-2.142857 2.142857 2.650983 -0.465567 0.465567 0.752659
-2.142857 4.285715 2.650983 -0.465567 0.465567 0.752659
-4.285715 4.285715 0.000000 -0.465567 0.465567 0.752659
-2.142857 2.142857 2.650983 0.777700 0.000000 0.628635
-0.000000 2.142857 0.000000 0.777700 0.000000 0.628635
-0.000000 4.285715 0.000000 0.777700 0.000000 0.628635
-2.142857 4.285715 2.650983 0.777700 0.000000 0.628635
2.142858 4.285715 0.000000 -0.385990 0.385990 0.837868
-0.000000 4.285715 0.000000 -0.385990 0.385990 0.837868
2.142858 2.142857 1.974348 -0.180624 0.758040 0.626698
4.285715 2.142857 3.209561 -0.180624 0.758040 0.626698
4.285715 4.285715 0.000000 -0.180624 0.758040 0.626698
2.142858 4.285715 0.000000 -0.180624 0.758040 0.626698
4.285715 2.142857 3.209561 0.054381 0.813296 0.579303
6.428572 2.142857 2.807248 0.054381 0.813296 0.579303
6.428572 4.285715 0.000000 0.054381 0.813296 0.579303
4.285715 4.285715 0.000000 0.054381 0.813296 0.579303
6.428572 2.142857 2.807248 0.480531 0.480531 0.733608
8.571429 2.142857 0.000000 0.480531 0.480531 0.733608
8.571429 4.285715 0.000000 0.480531 0.480531 0.733608
6.428572 4.285715 0.000000 0.480531 0.480531 0.733608
10.714287 4.285715 0.000000 0.000000 0.000000 1.000000
8.571429 4.285715 0.000000 0.000000 0.000000 1.000000
12.857143 4.285715 0.000000 0.000000 0.000000 1.000000
14.999999 4.285715 0.000000 0.000000 0.000000 1.000000
-12.857143 6.428572 0.000000 0.000000 0.000000 1.000000
-15.000000 6.428572 0.000000 0.000000 0.000000 1.000000
-12.857143 4.285715 0.000000 -0.777700 0.000000 0.628635
-10.714287 4.285715 2.650983 -0.777700 0.000000 0.628635
-10.714287 6.428572 2.650983 -0.777700 0.000000 0.628635
-12.857143 6.428572 0.000000 -0.777700 0.000000 0.628635
-10.714287 4.285715 2.650983 0.000000 0.000000 1.000000
-8.571429 6.428572 2.650983 0.000000 0.000000 1.000000
-10.714287 6.428572 2.650983 0.000000 0.000000 1.000000
-6.428572 6.428572 2.650983 0.000000 0.000000 1.000000
-6.428572 4.285715 2.650983 0.465567 -0.465567 0.752659
-4.285715 4.285715 0.000000 0.465567 -0.465567 0.752659
-4.285715 6.428572 2.650983 0.465567 -0.465567 0.752659
-6.428572 6.428572 2.650983 0.465567 -0.465567 0.752659
-4.285715 4.285715 0.000000 -0.465567 -0.465567 0.752659
-2.142857 4.285715 2.650983 -0.465567 -0.465567 0.752659
-2.142857 6.428572 2.650983 -0.465567 -0.465567 0.752659
-4.285715 6.428572 2.650983 -0.465567 -0.465567 0.752659
-2.142857 4.285715 2.650983 0.465567 -0.465567 0.752659
-0.000000 4.285715 0.000000 0.465567 -0.465567 0.752659
-0.000000 6.428572 2.650983 0.465567 -0.465567 0.752659
-2.142857 6.428572 2.650983 0.465567 -0.465567 0.752659
-0.000000 4.285715 0.000000 0.120699 -0.722059 0.681222
2.142858 4.285715 0.000000 0.120699 -0.722059 0.681222
2.142858 6.428572 1.891642 0.120699 -0.722059 0.681222
-0.000000 6.428572 2.650983 0.120699 -0.722059 0.681222
2.142858 4.285715 0.000000 0.000000 -0.661796 0.749684
4.285715 4.285715 0.000000 0.000000 -0.661796 0.749684
4.285715 6.428572 1.891642 0.000000 -0.661796 0.749684
2.142858 6.428572 1.891642 0.000000 -0.661796 0.749684
4.285715 4.285715 0.000000 -0.120699 -0.722059 0.681222
6.428572 4.285715 0.000000 -0.120699 -0.722059 0.681222
6.428572 6.428572 2.650983 -0.120699 -0.722059 0.681222
4.285715 6.428572 1.891642 -0.120699 -0.722059 0.681222
6.428572 4.285715 0.000000 0.465567 -0.465567 0.752659
8.571429 4.285715 0.000000 0.465567 -0.465567 0.752659
8.571429 6.428572 0.000000 0.465567 -0.465567 0.752659
6.428572 6.428572 2.650983 0.465567 -0.465567 0.752659
8.571429 4.285715 0.000000 -0.465567 -0.465567 0.752659
10.714287 4.285715 0.000000 -0.465567 -0.465567 0.752659
10.714287 6.428572 2.650983 -0.465567 -0.465567 0.752659
8.571429 6.428572 0.000000 -0.465567 -0.465567 0.752659
10.714287 4.285715 0.000000 0.465567 -0.465567 0.752659
12.857143 4.285715 0.000000 0.465567 -0.465567 0.752659
12.857143 6.428572 0.000000 0.465567 -0.465567 0.752659
10.714287 6.428572 2.650983 0.465567 -0.465567 0.752659
14.999999 6.428572 0.000000 0.000000 0.000000 1.000000
12.857143 6.428572 0.000000 0.000000 0.000000 1.000000
-12.857143 8.571429 0.000000 0.000000 0.000000 1.000000
-15.000000 8.571429 0.000000 0.000000 0.000000 1.000000
-12.857143 6.428572 0.000000 -0.777701 0.000000 0.628635
-10.714287 6.428572 2.650983 -0.777701 0.000000 0.628635
-10.714287 8.571429 2.650983 -0.777701 0.000000 0.628635
-12.857143 8.571429 0.000000 -0.777701 0.000000 0.628635
-8.571429 8.571429 2.650983 0.000000 0.000000 1.000000
-10.714287 8.571429 2.650983 0.000000 0.000000 1.000000
-8.571429 6.428572 2.650983 -0.265996 -0.265996 0.926548
-6.428572 6.428572 2.650983 -0.265996 -0.265996 0.926548
-6.428572 8.571429 3.881339 -0.265996 -0.265996 0.926548
-8.571429 8.571429 2.650983 -0.265996 -0.265996 0.926548
-6.428572 6.428572 2.650983 0.265996 -0.265996 0.926548
-4.285715 6.428572 2.650983 0.265996 -0.265996 0.926548
-4.285715 8.571429 2.650983 0.265996 -0.265996 0.926548
-6.428572 8.571429 3.881339 0.265996 -0.265996 0.926548
-4.285715 6.428572 2.650983 -0.585355 -0.585355 0.560999
-2.142857 6.428572 2.650983 -0.585355 -0.585355 0.560999
-2.142857 8.571429 7.122761 -0.585355 -0.585355 0.560999
-4.285715 8.571429 2.650983 -0.585355 -0.585355 0.560999
-2.142857 6.428572 2.650983 0.585355 -0.585355 0.560999
-0.000000 6.428572 2.650983 0.585355 -0.585355 0.560999
-0.000000 8.571429 2.650983 0.585355 -0.585355 0.560999
-2.142857 8.571429 7.122761 0.585355 -0.585355 0.560999
-0.000000 6.428572 2.650983 0.588547 0.326456 0.739621
2.142858 6.428572 1.891642 0.588547 0.326456 0.739621
2.142858 8.571429 0.000000 0.588547 0.326456 0.739621
-0.000000 8.571429 2.650983 0.588547 0.326456 0.739621
2.142858 6.428572 1.891642 0.000000 0.661796 0.749684
4.285715 6.428572 1.891642 0.000000 0.661796 0.749684
4.285715 8.571429 0.000000 0.000000 0.661796 0.749684
2.142858 8.571429 0.000000 0.000000 0.661796 0.749684
4.285715 6.428572 1.891642 -0.588547 0.326456 0.739621
6.428572 6.428572 2.650983 -0.588547 0.326456 0.739621
6.428572 8.571429 2.650983 -0.588547 0.326456 0.739621
4.285715 8.571429 0.000000 -0.588547 0.326456 0.739621
6.428572 6.428572 2.650983 0.777700 0.000000 0.628635
8.571429 6.428572 0.000000 0.777700 0.000000 0.628635
8.571429 8.571429 0.000000 0.777700 0.000000 0.628635
6.428572 8.571429 2.650983 0.777700 0.000000 0.628635
8.571429 6.428572 0.000000 -0.777700 0.000000 0.628635
10.714287 6.428572 2.650983 -0.777700 0.000000 0.628635
10.714287 8.571429 2.650983 -0.777700 0.000000 0.628635
8.571429 8.571429 0.000000 -0.777700 0.000000 0.628635
10.714287 6.428572 2.650983 0.777701 0.000000 0.628635
12.857143 6.428572 0.000000 0.777701 0.000000 0.628635
12.857143 8.571429 0.000000 0.777701 0.000000 0.628635
10.714287 8.571429 2.650983 0.777701 0.000000 0.628635
14.999999 8.571429 0.000000 0.000000 0.000000 1.000000
12.857143 8.571429 0.000000 0.000000 0.000000 1.000000
-15.000000 8.571429 0.000000 -0.465567 -0.465567 0.752659
-12.857143 8.571429 0.000000 -0.465567 -0.465567 0.752659
-12.857143 10.714287 2.650983 -0.465567 -0.465567 0.752659
-15.000000 10.714287 0.000000 -0.465567 -0.465567 0.752659
-10.714287 8.571429 2.650983 -0.465567 -0.465567 0.752659
-10.714287 10.714287 2.650983 -0.465567 -0.465567 0.752659
-8.571429 10.714287 2.650983 0.000000 0.000000 1.000000
-10.714287 10.714287 2.650983 0.000000 0.000000 1.000000
-8.571429 8.571429 2.650983 -0.265996 0.265996 0.926548
-6.428572 8.571429 3.881339 -0.265996 0.265996 0.926548
-6.428572 10.714287 2.650983 -0.265996 0.265996 0.926548
-8.571429 10.714287 2.650983 -0.265996 0.265996 0.926548
-6.428572 8.571429 3.881339 0.265996 0.265996 0.926548
-4.285715 8.571429 2.650983 0.265996 0.265996 0.926548
-4.285715 10.714287 2.650983 0.265996 0.265996 0.926548
-6.428572 10.714287 2.650983 0.265996 0.265996 0.926548
-4.285715 8.571429 2.650983 -0.854417 0.170113 0.490951
-2.142857 8.571429 7.122761 -0.854417 0.170113 0.490951
-2.142857 10.714287 5.637774 -0.854417 0.170113 0.490951
-4.285715 10.714287 2.650983 -0.854417 0.170113 0.490951
-2.142857 8.571429 7.122761 0.701637 -0.235638 0.672443
-0.000000 8.571429 2.650983 0.701637 -0.235638 0.672443
-0.000000 10.714287 5.637774 0.701637 -0.235638 0.672443
-2.142857 10.714287 5.637774 0.701637 -0.235638 0.672443
-0.000000 8.571429 2.650983 0.265393 -0.863415 0.429048
2.142858 8.571429 0.000000 0.265393 -0.863415 0.429048
2.142858 10.714287 5.637774 0.265393 -0.863415 0.429048
-0.000000 10.714287 5.637774 0.265393 -0.863415 0.429048
2.142858 8.571429 0.000000 0.000000 -0.934756 0.355291
4.285715 8.571429 0.000000 0.000000 -0.934756 0.355291
4.285715 10.714287 5.637774 0.000000 -0.934756 0.355291
2.142858 10.714287 5.637774 0.000000 -0.934756 0.355291
4.285715 8.571429 0.000000 0.047365 -0.795200 0.604494
6.428572 8.571429 2.650983 0.047365 -0.795200 0.604494
6.428572 10.714287 2.650983 0.047365 -0.795200 0.604494
4.285715 10.714287 5.637774 0.047365 -0.795200 0.604494
6.428572 8.571429 2.650983 0.465567 -0.465567 0.752659
8.571429 8.571429 0.000000 0.465567 -0.465567 0.752659
8.571429 10.714287 2.650983 0.465567 -0.465567 0.752659
6.428572 10.714287 2.650983 0.465567 -0.465567 0.752659
8.571429 8.571429 0.000000 -0.465567 -0.465567 0.752659
10.714287 8.571429 2.650983 -0.465567 -0.465567 0.752659
10.714287 10.714287 2.650983 -0.465567 -0.465567 0.752659
8.571429 10.714287 2.650983 -0.465567 -0.465567 0.752659
12.857143 10.714287 0.000000 0.777701 0.000000 0.628635
10.714287 10.714287 2.650983 0.777701 0.000000 0.628635
14.999999 10.714287 0.000000 0.000000 0.000000 1.000000
12.857143 10.714287 0.000000 0.000000 0.000000 1.000000
-15.000000 10.714287 0.000000 -0.465567 0.465567 0.752659
-12.857143 10.714287 2.650983 -0.465567 0.465567 0.752659
-12.857143 12.857143 0.000000 -0.465567 0.465567 0.752659
-15.000000 12.857143 0.000000 -0.465567 0.465567 0.752659
-12.857143 10.714287 2.650983 0.000000 0.777700 0.628635
-10.714287 10.714287 2.650983 0.000000 0.777700 0.628635
-10.714287 12.857143 0.000000 0.000000 0.777700 0.628635
-12.857143 12.857143 0.000000 0.000000 0.777700 0.628635
-10.714287 10.714287 2.650983 0.000000 0.777701 0.628635
-8.571429 10.714287 2.650983 0.000000 0.777701 0.628635
-8.571429 12.857143 0.000000 0.000000 0.777701 0.628635
-10.714287 12.857143 0.000000 0.000000 0.777701 0.628635
-6.428572 10.714287 2.650983 0.000000 0.777701 0.628635
-6.428572 12.857143 0.000000 0.000000 0.777701 0.628635
-6.428572 10.714287 2.650983 0.000000 0.777700 0.628635
-4.285715 10.714287 2.650983 0.000000 0.777700 0.628635
-4.285715 12.857143 0.000000 0.000000 0.777700 0.628635
-6.428572 12.857143 0.000000 0.000000 0.777700 0.628635
-4.285715 10.714287 2.650983 -0.622830 0.622830 0.473462
-2.142857 10.714287 5.637774 -0.622830 0.622830 0.473462
-2.142857 12.857143 2.650983 -0.622830 0.622830 0.473462
-4.285715 12.857143 0.000000 -0.622830 0.622830 0.473462
-2.142857 10.714287 5.637774 -0.496359 0.496358 0.712219
-0.000000 10.714287 5.637774 -0.496359 0.496358 0.712219
-0.000000 12.857143 5.637774 -0.496359 0.496358 0.712219
-2.142857 12.857143 2.650983 -0.496359 0.496358 0.712219
-0.000000 10.714287 5.637774 0.000000 0.000000 1.000000
2.142858 10.714287 5.637774 0.000000 0.000000 1.000000
2.142858 12.857143 5.637774 0.000000 0.000000 1.000000
-0.000000 12.857143 5.637774 0.000000 0.000000 1.000000
4.285715 10.714287 5.637774 0.000000 0.000000 1.000000
4.285715 12.857143 5.637774 0.000000 0.000000 1.000000
4.285715 10.714287 5.637774 0.812518 0.000000 0.582936
6.428572 10.714287 2.650983 0.812518 0.000000 0.582936
6.428572 12.857143 2.650983 0.812518 0.000000 0.582936
4.285715 12.857143 5.637774 0.812518 0.000000 0.582936
6.428572 10.714287 2.650983 0.465567 0.465567 0.752659
8.571429 10.714287 2.650983 0.465567 0.465567 0.752659
8.571429 12.857143 0.000000 0.465567 0.465567 0.752659
6.428572 12.857143 2.650983 0.465567 0.465567 0.752659
8.571429 10.714287 2.650983 -0.465567 0.465567 0.752659
10.714287 10.714287 2.650983 -0.465567 0.465567 0.752659
10.714287 12.857143 2.650983 -0.465567 0.465567 0.752659
8.571429 12.857143 0.000000 -0.465567 0.465567 0.752659
10.714287 10.714287 2.650983 0.465567 -0.465567 0.752659
12.857143 10.714287 0.000000 0.465567 -0.465567 0.752659
12.857143 12.857143 2.650983 0.465567 -0.465567 0.752659
10.714287 12.857143 2.650983 0.465567 -0.465567 0.752659
14.999999 10.714287 0.000000 0.465567 -0.465567 0.752659
14.999999 12.857143 0.000000 0.465567 -0.465567 0.752659
-15.000000 12.857143 0.000000 0.000000 0.000000 1.000000
-12.857143 12.857143 0.000000 0.000000 0.000000 1.000000
-12.857143 14.999999 0.000000 0.000000 0.000000 1.000000
-15.000000 14.999999 0.000000 0.000000 0.000000 1.000000
-10.714287 12.857143 0.000000 0.000000 0.000000 1.000000
-10.714287 14.999999 0.000000 0.000000 0.000000 1.000000
-8.571429 12.857143 0.000000 0.000000 0.000000 1.000000
-8.571429 14.999999 0.000000 0.000000 0.000000 1.000000
-6.428572 12.857143 0.000000 0.000000 0.000000 1.000000
-6.428572 14.999999 0.000000 0.000000 0.000000 1.000000
-4.285715 12.857143 0.000000 0.000000 0.000000 1.000000
-4.285715 14.999999 0.000000 0.000000 0.000000 1.000000
-4.285715 12.857143 0.000000 -0.465566 0.465567 0.752659
-2.142857 12.857143 2.650983 -0.465566 0.465567 0.752659
-2.142857 14.999999 0.000000 -0.465566 0.465567 0.752659
-4.285715 14.999999 0.000000 -0.465566 0.465567 0.752659
-2.142857 12.857143 2.650983 -0.304851 0.846004 0.437427
-0.000000 12.857143 5.637774 -0.304851 0.846004 0.437427
-0.000000 14.999999 0.000000 -0.304851 0.846004 0.437427
-2.142857 14.999999 0.000000 -0.304851 0.846004 0.437427
-0.000000 12.857143 5.637774 0.000000 0.934756 0.355290
2.142858 12.857143 5.637774 0.000000 0.934756 0.355290
2.142858 14.999999 0.000000 0.000000 0.934756 0.355290
-0.000000 14.999999 0.000000 0.000000 0.934756 0.355290
4.285715 12.857143 5.637774 0.000000 0.934756 0.355290
4.285715 14.999999 0.000000 0.000000 0.934756 0.355290
4.285715 12.857143 5.637774 0.304851 0.846004 0.437427
6.428572 12.857143 2.650983 0.304851 0.846004 0.437427
6.428572 14.999999 0.000000 0.304851 0.846004 0.437427
4.285715 14.999999 0.000000 0.304851 0.846004 0.437427
8.571429 14.999999 0.000000 0.465567 0.465567 0.752659
6.428572 14.999999 0.000000 0.465567 0.465567 0.752659
10.714287 14.999999 0.000000 -0.465567 0.465567 0.752659
8.571429 14.999999 0.000000 -0.465567 0.465567 0.752659
10.714287 12.857143 2.650983 0.000000 0.777701 0.628635
12.857143 12.857143 2.650983 0.000000 0.777701 0.628635
12.857143 14.999999 0.000000 0.000000 0.777701 0.628635
10.714287 14.999999 0.000000 0.000000 0.777701 0.628635
12.857143 12.857143 2.650983 0.465567 0.465567 0.752659
14.999999 12.857143 0.000000 0.465567 0.465567 0.752659
14.999999 14.999999 0.000000 0.465567 0.465567 0.752659
12.857143 14.999999 0.000000 0.465567 0.465567 0.752659
4 0 1 2 3
4 1 4 5 2
4 4 6 7 5
4 6 8 9 7
4 8 10 11 9
4 10 12 13 11
4 12 14 15 13
4 14 16 17 15
4 16 18 19 17
4 18 20 21 19
4 20 22 23 21
4 22 24 25 23
4 24 26 27 25
4 26 28 29 27
4 3 2 30 31
4 2 5 32 30
4 5 7 33 32
4 7 9 34 33
4 9 11 35 34
4 11 13 36 35
4 13 15 37 36
4 15 17 38 37
4 17 19 39 38
4 19 21 40 39
4 21 23 41 40
4 23 25 42 41
4 25 27 43 42
4 27 29 44 43
4 31 30 45 46
4 30 32 47 45
4 32 33 48 47
4 33 34 49 48
4 34 35 50 49
4 35 36 51 50
4 52 53 54 55
4 56 57 58 59
4 60 61 62 63
4 64 65 66 67
4 68 69 70 71
4 41 42 72 73
4 42 43 74 72
4 43 44 75 74
4 46 45 76 77
4 45 47 78 76
4 47 48 79 78
4 48 49 80 79
4 49 50 81 80
4 82 55 83 84
4 55 54 85 83
4 86 87 88 89
4 90 91 92 93
4 94 95 96 97
4 98 99 100 101
4 73 72 102 103
4 72 74 104 102
4 74 75 105 104
4 77 76 106 107
4 76 78 108 106
4 78 79 109 108
4 110 111 112 113
4 114 115 116 117
4 118 119 120 121
4 122 123 124 125
4 126 127 128 129
4 130 131 132 133
4 134 135 136 137
4 138 139 140 141
4 103 102 142 143
4 102 104 144 142
4 104 105 145 144
4 107 106 146 147
4 106 108 148 146
4 149 113 150 151
4 113 112 152 150
4 153 154 155 156
4 157 158 159 160
4 158 161 162 159
4 163 164 165 166
4 167 168 169 170
4 171 172 173 174
4 175 176 177 178
4 143 142 179 180
4 142 144 181 179
4 144 145 182 181
4 147 146 183 184
4 146 148 185 183
4 186 187 188 189
4 190 191 192 193
4 194 195 196 197
4 198 199 200 201
4 202 203 204 205
4 206 207 208 209
4 210 211 212 213
4 174 173 214 215
4 216 217 218 219
4 180 179 220 221
4 179 181 222 220
4 181 182 223 222
4 184 183 224 225
4 183 185 226 224
4 189 188 227 228
4 193 192 229 230
4 192 231 232 229
4 196 233 234 235
4 236 237 238 239
4 240 241 242 243
4 244 245 246 247
4 248 249 250 251
4 252 253 254 255
4 221 220 256 257
4 220 222 258 256
4 222 223 259 258
4 225 224 260 261
4 262 263 264 265
4 263 266 267 264
4 230 229 268 269
4 270 271 272 273
4 274 275 276 277
4 278 279 280 281
4 243 242 282 283
4 284 285 286 287
4 288 289 290 291
4 292 293 294 295
4 257 256 296 297
4 256 258 298 296
4 258 259 299 298
4 261 260 300 301
4 302 303 304 305
4 306 269 307 308
4 269 268 309 307
4 310 311 312 313
4 314 315 316 317
4 318 319 320 321
4 322 323 324 325
4 326 327 328 329
4 330 331 332 333
4 334 335 336 337
4 338 339 340 341
4 342 343 344 345
4 298 299 346 347
4 301 300 348 349
4 350 351 352 353
4 308 307 354 355
4 356 357 358 359
4 360 361 362 363
4 364 365 366 367
4 368 369 370 371
4 372 373 374 375
4 376 377 378 379
4 380 381 382 383
4 384 385 386 387
4 388 389 390 391
4 392 393 394 395
4 347 346 396 397
4 398 399 400 401
4 399 402 403 400
4 355 354 404 405
4 406 407 408 409
4 410 411 412 413
4 414 415 416 417
4 418 419 420 421
4 422 423 424 425
4 426 427 428 429
4 430 431 432 433
4 434 435 436 437
4 438 439 440 441
4 395 394 442 443
4 397 396 444 445
4 446 447 448 449
4 450 451 452 453
4 454 455 456 457
4 455 458 459 456
4 460 461 462 463
4 464 465 466 467
4 468 469 470 471
4 472 473 474 475
4 473 476 477 474
4 478 479 480 481
4 482 483 484 485
4 486 487 488 489
4 490 491 492 493
4 491 494 495 492
4 496 497 498 499
4 497 500 501 498
4 500 502 503 501
4 502 504 505 503
4 504 506 507 505
4 508 509 510 511
4 512 513 514 515
4 516 517 518 519
4 517 520 521 518
4 522 523 524 525
4 485 484 526 527
4 489 488 528 529
4 530 531 532 533
4 534 535 536 537
