ply
format ascii 1.0
comment Created by Open Asset Import Library - http://assimp.sf.net (v3.1.187496374)
element vertex 414
property float x
property float y
property float z
property float nx
property float ny
property float nz
property float s
property float t
property float tx
property float ty
property float tz
property float bx
property float by
property float bz
element face 300
property list uint uint vertex_index
end_header
1 -1 0.333333 0 -1 0 0 0 -1 0 0 0.948683 0 -0.316228
1 -1 1 0 -1 0 0 0 -0.948683 0 0.316228 0 0 -1
-1 -1 1 0 -1 0 0 0 -1 0 0 0.948683 0 -0.316228
-1 -1 0.333333 0 -1 0 0 0 -1 0 -1.6888e-07 0.948683 0 -0.316228
1 -1 -0.333333 0 -1 0 0 0 -1 0 -5.06639e-07 0.948683 0 -0.316227
1 -1 0.333333 0 -1 0 0 0 -0.948683 0 0.316227 0 0 -1
-1 -1 -0.333334 0 -1 0 0 0 -1 0 -1.6888e-07 0.948683 0 -0.316227
1 -1 -1 0 -1 0 0 0 -1 0 0 0.948683 0 -0.316227
1 -1 -0.333333 0 -1 0 0 0 -0.948683 0 0.316227 0 0 -1
-1 -1 -1 0 -1 0 0 0 -1 0 0 0.948683 0 -0.316227
1 1 0.333334 0.7094 -0.7048 0 0.70048 0.351026 -0.704803 -0.709403 3.83016e-05 -2.51674e-07 -2.53312e-07 1
1 1 -0.333333 0.7094 -0.7048 0 0.70048 0.458407 -0.704803 -0.709403 3.0224e-07 -2.12714e-07 -2.14099e-07 1
1.1109 1.11163 -0.370298 0.7094 -0.7048 0 0.665729 0.464361 -0.704803 -0.709403 2.50813e-05 -2.12714e-07 -2.14099e-07 1
1.1109 1.11163 0.370299 0.7094 -0.7048 0 0.665729 0.345071 -0.704803 -0.709403 3.61706e-05 0 0 1
0.999999 1 1 0.7094 -0.7048 0 0.70048 0.243645 -0.704803 -0.709403 3.3293e-05 0 0 1
1 1 -0.999999 0.7094 -0.7048 0 0.70048 0.565788 -0.704803 -0.709403 1.27877e-05 0 0 1
1.1109 1.11163 -1.1109 0.7094 -0.7048 0 0.665729 0.58365 -0.704803 -0.709403 2.48086e-08 -6.38143e-07 -6.42297e-07 1
1.1109 1.11163 1.1109 0.7094 -0.7048 0 0.665729 0.225782 -0.704803 -0.709403 3.3293e-05 0 0 1
1 0.646083 0.266345 0 1 -0 0 0 -1 0 0 0.109829 0 0.99395
1 0.646083 -0.266344 0 1 -0 0 0 -0.109829 0 -0.99395 0 0 1
0.941139 0.646083 -0.266344 0 1 -0 0 0 -1 0 0 0.109829 0 0.99395
0.941139 0.646083 0.266345 0 1 -0 0 0 -1 0 0 0.109829 0 0.99395
1 0.579094 1 -0 -0 1 0.006122 0.045781 -1 0 0 0 1 0
0.999999 1 1 -0 -0 1 0.006122 0.00618 -1 0 0 -2.40738e-06 1 0
-1 1 1 -0 -0 1 0.194289 0.00618 -1 0 0 0 1 0
-1 0.579094 1 -0 -0 1 0.194289 0.045781 -1 0 0 0 1 0
1 0.079094 1 -0 -0 1 0.006122 0.092823 -1 0 0 0 1 0
-1 0.079094 1 -0 -0 1 0.194289 0.092823 -1 0 0 0 1 0
1 -0.420906 1 -0 -0 1 0.006122 0.139864 -1 0 0 0 1 0
-1 -0.420906 1 -0 -0 1 0.194289 0.139864 -1 0 0 0 1 0
1 -1 1 -0 -0 1 0.006122 0.194348 -1 0 0 0 1 0
-1 -1 1 -0 -0 1 0.194289 0.194348 -1 0 0 0 1 0
-1 0.579094 -0.333333 -1 -0 -0 0.319734 0.045781 0 0 -1 0 1 8.09189e-07
-1 1 -0.333333 -1 -0 -0 0.319734 0.00618 0 0 -1 0 1 0
-1 1 -1 -1 -0 -0 0.382456 0.00618 0 0 -1 0 1 0
-1 0.579094 -1 -1 -0 -0 0.382456 0.045781 0 0 -1 0 1 0
-1 0.079094 -0.333334 -1 -0 -0 0.319734 0.092823 0 0 -1 0 1 4.03877e-07
-1 0.079094 0.333333 -1 -0 -0 0.257012 0.092823 0 0 -1 0 1 4.03877e-07
-1 0.579094 0.333333 -1 -0 -0 0.257012 0.045781 0 0 -1 0 1 0
-1 1 0.333333 -1 -0 -0 0.257012 0.00618 0 0 -1 0 1 0
-1 0.079094 1 -1 -0 -0 0.194289 0.092823 0 0 -1 0 1 0
-1 0.579094 1 -1 -0 -0 0.194289 0.045781 0 0 -1 0 1 0
-1 -0.420906 1 -1 -0 -0 0.194289 0.139864 0 0 -1 0 1 0
-1 -0.420906 0.333333 -1 -0 -0 0.257012 0.139864 0 0 -1 0 1 7.43241e-06
-1 -1 1 -1 -0 -0 0.194289 0.194348 0 0 -1 0 1 1.85639e-05
-1 -0.420906 -0.333334 -1 -0 -0 0.319734 0.139864 0 0 -1 0 1 0
-1 -1 0.333333 -1 -0 -0 0.257011 0.194348 0 0 -1 0 1 1.23759e-05
-1 -1 -0.333334 -1 -0 -0 0.319734 0.194348 0 0 -1 0 1 0
-1 -0.420906 -1 -1 -0 -0 0.382456 0.139864 0 0 -1 0 1 0
-1 0.079094 -1 -1 -0 -0 0.382456 0.092823 0 0 -1 0 1 0
-1 -1 -1 -1 -0 -0 0.382456 0.194348 0 0 -1 0 1 0
-1 1 1 -1 -0 -0 0.194289 0.00618 0 0 -1 0 1 0
1 -0.420906 -1 0 0 -1 0.570624 0.139864 1 0 0 0 1 0
1 -1 -1 0 0 -1 0.570624 0.194348 1 0 0 0 1 0
-1 -1 -1 0 0 -1 0.382456 0.194348 1 0 0 0 1 0
-1 -0.420906 -1 0 0 -1 0.382456 0.139864 1 0 0 0 1 0
1 0.079094 -1 0 0 -1 0.570624 0.092823 1 0 0 0 1 0
-1 0.079094 -1 0 0 -1 0.382456 0.092823 1 0 0 0 1 0
1 0.579094 -1 0 0 -1 0.570624 0.045781 1 0 0 0 1 0
-1 0.579094 -1 0 0 -1 0.382456 0.045781 1 0 0 0 1 0
1 1 -0.999999 0 0 -1 0.570624 0.00618 1 0 0 0 1 0
-1 1 -1 0 0 -1 0.382456 0.00618 1 0 0 0 1 0
1 -1 0.333333 1 0 0 0.144441 0.605018 0 -4.13406e-06 -1 0 -1 0
1 -0.420906 0.333333 1 0 0 0.144441 0.715078 0 -3.52442e-06 -1 0 -1 -1.59051e-06
1 -0.420906 1 1 0 0 0.012843 0.715078 0 6.4219e-06 -1 0 -1 9.79578e-06
1 -1 1 1 0 0 0.012843 0.605018 0 0 -1 0 -1 0
1 -0.999286 0.223947 1 0 0 0.166033 0.605154 0 -1.24022e-05 -1 0 -1 0
1 -0.339449 0.918544 1 0 0 0.028922 0.730559 0 1.71251e-05 -1 0 -1 1.53304e-06
1 0.079094 1 1 0 0 0.012843 0.810106 0 2.05016e-05 -1 0 -1 9.03518e-06
1 -0.339449 0.41479 1 0 0 0.128361 0.730559 0 -1.16595e-05 -1 0 -1 2.61221e-05
1 -0.002362 0.918544 1 0 0 0.028922 0.794625 0 -1.49909e-05 -1 0 -1 -3.85175e-06
1 0.079094 0.333334 1 0 0 0.144441 0.810106 0 -3.68185e-06 -1 0 -1 2.79479e-07
1 0.146083 0.933012 1 0 0 0.026066 0.822837 0 3.40885e-05 -1 0 -1 4.58348e-06
1 0.579094 1 1 0 0 0.012843 0.905134 0 2.40042e-05 -1 0 -1 -6.84546e-07
1 0.146083 0.400322 1 0 0 0.131217 0.822837 0 -1.75871e-05 -1 0 -1 3.78208e-05
1 -0.002362 0.41479 1 0 0 0.128361 0.794625 0 4.39155e-06 -1 0 -1 -3.86956e-05
1 -0.494375 0.223947 1 0 0 0.166033 0.701115 0 -2.95748e-06 -1 0 -1 -1.45776e-05
1 -0.420906 -0.333333 1 0 0 0.276038 0.715078 0 -7.03322e-06 -1 0 -1 -4.99036e-06
1 -0.353917 -0.266344 1 0 0 0.262815 0.72781 0 1.37233e-05 -1 0 -1 -1.73258e-05
1 -0.353917 0.266345 1 0 0 0.157664 0.72781 0 -9.65594e-06 -1 0 -1 9.19714e-06
1 -0.494375 -0.214557 1 0 0 0.252592 0.701115 0 2.92096e-06 -1 0 -1 -3.12423e-06
1 -0.999286 -0.214557 1 0 0 0.252592 0.605154 0 1.14394e-05 -1 0 -1 0
1 -1 -0.333333 1 0 0 0.276038 0.605018 0 2.92096e-06 -1 0 -1 0
1 -1 -1 1 0 0 0.407636 0.605018 0 0 -1 0 -1 0
1 -0.420906 -1 1 0 0 0.407636 0.715078 0 -9.72349e-06 -1 0 -1 1.98306e-06
1 0.002367 -0.923272 1 0 0 0.39249 0.795523 0 -2.59293e-05 -1 0 -1 -3.51462e-06
1 -0.344178 -0.923272 1 0 0 0.39249 0.729661 0 2.65383e-05 -1 0 -1 2.64408e-06
1 0.079094 -1 1 0 0 0.407636 0.810106 0 -2.42478e-05 -1 0 -1 1.03067e-05
1 0.002367 -0.410061 1 0 0 0.291184 0.795523 0 1.76922e-05 -1 0 -1 6.39506e-06
1 0.079094 -0.333333 1 0 0 0.276038 0.810106 0 -7.27917e-06 -1 0 -1 2.34354e-06
1 0.512106 -0.933011 1 0 0 0.394412 0.892402 0 -2.89674e-05 -1 0 -1 -1.41032e-05
1 0.146083 -0.933011 1 0 0 0.394412 0.822837 0 -3.51737e-05 -1 0 -1 1.39803e-05
1 0.579094 -1 1 0 0 0.407636 0.905134 0 -7.00369e-06 -1 0 -1 5.58531e-06
1 -0.344178 -0.410061 1 0 0 0.291184 0.729661 0 -8.55794e-06 -1 0 -1 -8.30717e-06
1 0.012106 -0.266344 1 0 0 0.262815 0.797374 0 -1.31183e-05 -1 0 -1 2.04497e-05
1 0.012106 0.266345 1 0 0 0.157664 0.797374 0 1.73207e-05 -1 0 -1 -1.57766e-05
1 0.160551 -0.251877 1 0 0 0.259959 0.825587 0 -6.78172e-06 -1 0 -1 -2.25891e-06
1 0.160551 0.251877 1 0 0 0.16052 0.825587 0 8.70279e-06 -1 0 -1 1.16511e-05
1 0.579094 0.333334 1 0 0 0.144441 0.905134 0 -6.84993e-07 -1 0 -1 -3.0461e-06
1 0.512106 0.400322 1 0 0 0.131217 0.892402 0 -1.44839e-05 -1 0 -1 -4.08994e-05
1 0.497638 -0.251877 1 0 0 0.259959 0.889652 0 -1.72053e-05 -1 0 -1 3.98595e-06
1 0.579094 -0.333333 1 0 0 0.276038 0.905134 0 -1.9016e-06 -1 0 -1 1.08645e-06
1 0.146083 -0.400322 1 0 0 0.289261 0.822837 0 1.7044e-05 -1 0 -1 1.97442e-05
1 0.497638 0.251877 1 0 0 0.16052 0.889652 0 1.92741e-05 -1 0 -1 -9.38328e-06
1 0.660551 -0.918543 1 0 0 0.391556 0.920615 0 -1.5545e-05 -1 0 -1 1.3061e-05
1 0.660551 -0.414789 1 0 0 0.292117 0.920615 0 5.55033e-06 -1 0 -1 2.75947e-06
1 1 -0.333333 1 0 0 0.276038 0.985129 0 -3.3261e-06 -1 0 -1 7.37227e-06
1 0.512106 -0.400322 1 0 0 0.289261 0.892402 0 1.39896e-05 -1 0 -1 -2.00728e-05
1 0.646083 -0.266344 1 0 0 0.262815 0.917865 0 -1.64864e-05 -1 0 -1 -1.62694e-05
1 0.933011 -0.266344 1 0 0 0.262815 0.972397 0 -1.10938e-05 -1 0 -1 2.04494e-05
1 0.918544 -0.918543 1 0 0 0.391556 0.969648 0 2.81089e-06 -1 0 -1 7.66395e-06
1 1 -0.999999 1 0 0 0.407635 0.985129 0 2.81089e-06 -1 0 -1 5.06785e-06
1 0.918544 -0.414789 1 0 0 0.292117 0.969648 0 -3.73086e-06 -1 0 -1 -2.4327e-06
1 0.933011 0.266345 1 0 0 0.157664 0.972397 0 1.00278e-05 -1 0 -1 2.94396e-05
1 1 0.333334 1 0 0 0.14444 0.985129 0 2.2357e-06 -1 0 -1 2.0464e-05
1 0.646083 0.266345 1 0 0 0.157664 0.917865 0 1.54097e-05 -1 0 -1 2.44549e-05
0.999999 0.923272 0.923273 1 0 0 0.027989 0.970546 0 2.35612e-05 -1 0 -1 5.68789e-06
1 0.923272 0.410062 1 0 0 0.129295 0.970546 0 -1.16835e-05 -1 0 -1 4.07487e-05
0.999999 1 1 1 0 0 0.012843 0.985129 0 2.29627e-05 -1 0 -1 4.1783e-06
1 0.655822 0.410061 1 0 0 0.129295 0.919716 0 -1.13032e-05 -1 0 -1 1.16257e-05
1 0.512106 0.933012 1 0 0 0.026066 0.892402 0 2.79795e-05 -1 0 -1 -6.05705e-06
1 0.655822 0.923273 1 0 0 0.027989 0.919716 0 2.29627e-05 -1 0 -1 -1.04558e-05
1 0.160551 -0.251877 -0 -0 1 0 0 -1 0 0 0.172014 -0.985095 0
1 0.497638 -0.251877 -0 -0 1 0 0 -0.172014 0.985095 0 0 -1 0
0.941139 0.497638 -0.251877 -0 -0 1 0 0 -1 0 0 0.172014 -0.985095 0
0.941139 0.160551 -0.251877 -0 -0 1 0 0 -1 0 0 0.172014 -0.985095 0
1 0.512106 -0.933011 0 -1 0 0 0 -1 0 0 0.109829 0 -0.99395
1 0.512106 -0.400322 0 -1 0 0 0 -0.109829 0 0.99395 0 0 -1
0.941139 0.512106 -0.400322 0 -1 0 0 0 -1 0 0 0.109829 0 -0.99395
0.94114 0.512106 -0.933011 0 -1 0 0 0 -1 0 0 0.109829 0 -0.99395
1 0.497638 -0.251877 0 -1 0 0 0 -1 0 0 0.116055 0 -0.993243
1 0.497638 0.251877 0 -1 0 0 0 -0.116055 0 0.993243 0 0 -1
0.941139 0.497638 0.251877 0 -1 0 0 0 -1 0 0 0.116055 0 -0.993243
0.941139 0.497638 -0.251877 0 -1 0 0 0 -1 0 0 0.116055 0 -0.993243
1 0.012106 -0.266344 0 -1 0 0 0 -1 0 0 0.109829 0 -0.99395
1 0.012106 0.266345 0 -1 0 0 0 -0.109829 0 0.99395 0 0 -1
0.941139 0.012106 0.266345 0 -1 0 0 0 -1 0 0 0.109829 0 -0.99395
0.941139 0.012106 -0.266344 0 -1 0 0 0 -1 0 0 0.109829 0 -0.99395
1 0.660551 -0.414789 0 1 -0 0 0 -1 0 0 0.116053 0 0.993243
1 0.660551 -0.918543 0 1 -0 0 0 -0.116053 0 -0.993243 0 0 1
0.94114 0.660551 -0.918543 0 1 -0 0 0 -1 0 0 0.116053 0 0.993243
0.941139 0.660551 -0.414789 0 1 -0 0 0 -1 0 0 0.116053 0 0.993243
1 0.146083 -0.400322 0 1 -0 0 0 -1 0 0 0.109828 0 0.993951
1 0.146083 -0.933011 0 1 -0 0 0 -0.109828 0 -0.993951 0 0 1
0.94114 0.146083 -0.933011 0 1 -0 0 0 -1 0 0 0.109828 0 0.993951
0.941139 0.146083 -0.400322 0 1 -0 0 0 -1 0 0 0.109828 0 0.993951
1 -0.999286 -0.214557 -0 -0 1 0 0 -1 0 0 0.206181 -0.978514 0
1 -0.494375 -0.214557 -0 -0 1 0 0 -0.206181 0.978514 0 0 -1 0
0.893611 -0.494375 -0.214557 -0 -0 1 0 0 -1 0 0 0.206181 -0.978514 0
0.893611 -0.999286 -0.214557 -0 -0 1 0 0 -1 0 0 0.206181 -0.978514 0
1 0.160551 0.251877 0 1 -0 0 0 -1 0 0 0.116055 0 0.993243
1 0.160551 -0.251877 0 1 -0 0 0 -0.116055 0 -0.993243 0 0 1
0.941139 0.160551 -0.251877 0 1 -0 0 0 -1 0 0 0.116055 0 0.993243
0.941139 0.160551 0.251877 0 1 -0 0 0 -1 0 0 0.116055 0 0.993243
1 -0.353917 0.266345 0 1 -0 0 0 -1 0 0 0.109829 0 0.99395
1 -0.353917 -0.266344 0 1 -0 0 0 -0.109829 0 -0.99395 0 0 1
0.941139 -0.353917 -0.266344 0 1 -0 0 0 -1 0 0 0.109829 0 0.99395
0.941139 -0.353917 0.266345 0 1 -0 0 0 -1 0 0 0.109829 0 0.99395
-1 1 1 -0 -0.7048 0.7094 0.839297 0.243645 -2.49408e-05 -0.709403 -0.704803 -1 -2.14649e-07 -2.1326e-07
0.999999 1 1 -0 -0.7048 0.7094 0.839297 0.565788 -1.29347e-05 -0.709403 -0.704803 -1 -2.38412e-07 -2.3687e-07
1.1109 1.11163 1.1109 -0 -0.7048 0.7094 0.814643 0.58365 -2.49408e-05 -0.709403 -0.704803 -1 -2.14649e-07 -2.1326e-07
-1.1109 1.11163 1.1109 -0 -0.7048 0.7094 0.814643 0.225782 -2.49408e-05 -0.709403 -0.704803 -1 -2.14649e-07 -2.1326e-07
-1 1 -0.333333 -0.7094 -0.7048 -0 0.70048 0.458407 -0.704803 0.709403 -6.58949e-06 0 0 1
-1 1 0.333333 -0.7094 -0.7048 -0 0.70048 0.351026 -0.704803 0.709403 1.25777e-06 -2.12714e-07 2.14099e-07 1
-1.1109 1.11163 0.370298 -0.7094 -0.7048 -0 0.735231 0.345072 -0.704803 0.709403 -3.86187e-06 -2.12714e-07 2.14099e-07 1
-1.1109 1.11163 -0.370299 -0.7094 -0.7048 -0 0.735231 0.464361 -0.704803 0.709403 -6.48331e-06 0 0 1
-1 1 -1 -0.7094 -0.7048 -0 0.70048 0.565788 -0.704803 0.709403 -5.85482e-06 0 0 1
-1 1 1 -0.7094 -0.7048 -0 0.70048 0.243645 -0.704803 0.709403 -3.21896e-05 0 0 1
-1.1109 1.11163 1.1109 -0.7094 -0.7048 -0 0.735231 0.225782 -0.704803 0.709403 2.00948e-06 -6.38143e-07 6.42297e-07 1
-1.1109 1.11163 -1.1109 -0.7094 -0.7048 -0 0.735231 0.58365 -0.704803 0.709403 -5.85482e-06 0 0 1
1 -0.999286 -0.214557 1 0.0002 0 0 0 1.20225e-06 -0.00601124 -0.999982 -2.60638e-07 0.00130319 -0.999999
1 -0.999286 0.223947 1 0.0002 0 0 0 2.60638e-07 -0.00130319 0.999999 0 0 -1
1 -1 0.333333 1 0.0002 0 0 0 1.20225e-06 -0.00601124 -0.999982 -2.60638e-07 0.00130319 -0.999999
1 -1 -0.333333 1 0.0002 0 0 0 1.20225e-06 -0.00601124 -0.999982 -2.60638e-07 0.00130319 -0.999999
0.941139 0.655822 0.410061 1 0 0 0.669642 0.976723 0 1 0 0 0 1
0.941139 0.923272 0.410062 1 0 0 0.768996 0.976723 0 1 3.67724e-06 0 0 1
0.941139 0.923272 0.923273 1 0 0 0.768996 0.877369 0 1 0 0 0 1
0.941139 0.655822 0.923273 1 0 0 0.669642 0.877369 0 1 0 0 0 1
0.941139 -0.339449 0.41479 1 0 0 0.668092 0.848865 0 1 0 0 0 1
0.941139 -0.002362 0.41479 1 0 0 0.767446 0.848865 0 1 0 0 0 1
0.941139 -0.002362 0.918544 1 0 0 0.767446 0.749511 0 1 0 0 0 1
0.941139 -0.339449 0.918544 1 0 0 0.668092 0.749511 0 1 0 0 0 1
0.941139 0.146083 0.400322 1 0 0 0.551086 0.976723 0 1 0 0 0 1
0.941139 0.512106 0.400322 1 0 0 0.65044 0.976723 0 1 0 0 0 1
0.941139 0.512106 0.933012 1 0 0 0.65044 0.877369 0 1 0 0 0 1
0.941139 0.146083 0.933012 1 0 0 0.551086 0.877369 0 1 0 0 0 1
0.94114 0.146083 -0.933011 1 0 0 0.552636 0.850415 0 1 0 0 0 1
0.94114 0.512106 -0.933011 1 0 0 0.65199 0.850415 0 1 0 0 0 1
0.941139 0.512106 -0.400322 1 0 0 0.65199 0.751061 0 1 0 0 0 1
0.941139 0.146083 -0.400322 1 0 0 0.552636 0.751061 0 1 0 0 0 1
0.941139 0.160551 -0.251877 1 0 0 0.675843 0.725658 0 1 0 0 0 1
0.941139 0.497638 -0.251877 1 0 0 0.775197 0.725658 0 1 0 0 0 1
0.941139 0.497638 0.251877 1 0 0 0.775197 0.626304 0 1 0 0 0 1
0.941139 0.160551 0.251877 1 0 0 0.675843 0.626304 0 1 0 0 0 1
0.941139 -0.344178 -0.923272 1 0 0 0.432529 0.979823 0 1 0 0 0 1
0.94114 0.002367 -0.923272 1 0 0 0.531883 0.979823 0 1 0 0 0 1
0.941139 0.002367 -0.410061 1 0 0 0.531883 0.880469 0 1 0 0 0 1
0.941139 -0.344178 -0.410061 1 0 0 0.432529 0.880469 0 1 0 0 0 1
0.941139 -0.353917 -0.266344 1 0 0 0.432529 0.851965 0 1 0 0 0 1
0.941139 0.012106 -0.266344 1 0 0 0.531883 0.851965 0 1 0 0 0 1
0.941139 0.012106 0.266345 1 0 0 0.531883 0.752611 0 1 0 0 0 1
0.941139 -0.353917 0.266345 1 0 0 0.432529 0.752611 0 1 0 0 0 1
0.94114 0.660551 -0.918543 1 0 0 0.552636 0.725658 0 1 0 0 0 1
0.94114 0.918544 -0.918543 1 0 0 0.65199 0.725658 0 1 0 0 0 1
0.941139 0.918544 -0.414789 1 0 0 0.65199 0.626304 0 1 0 0 0 1
0.941139 0.660551 -0.414789 1 0 0 0.552636 0.626304 0 1 0 0 0 1
0.941139 0.646083 -0.266344 1 0 0 0.435629 0.727208 0 1 0 0 0 1
0.941139 0.933011 -0.266344 1 0 0 0.534983 0.727208 0 1 0 0 0 1
0.941139 0.933011 0.266345 1 0 0 0.534983 0.627854 0 1 0 0 0 1
0.941139 0.646083 0.266345 1 0 0 0.435629 0.627854 0 1 0 0 0 1
1 0.497638 0.251877 0 0 -1 0 0 -1 0 0 0.172014 0.985095 0
1 0.160551 0.251877 0 0 -1 0 0 -0.172014 -0.985095 0 0 1 0
0.941139 0.160551 0.251877 0 0 -1 0 0 -1 0 0 0.172014 0.985095 0
0.941139 0.497638 0.251877 0 0 -1 0 0 -1 0 0 0.172014 0.985095 0
1 0.512106 -0.400322 0 0 -1 0 0 -1 0 0 0.158772 0.987315 0
1 0.146083 -0.400322 0 0 -1 0 0 -0.158772 -0.987315 0 0 1 0
0.941139 0.146083 -0.400322 0 0 -1 0 0 -1 0 0 0.158772 0.987315 0
0.941139 0.512106 -0.400322 0 0 -1 0 0 -1 0 0 0.158772 0.987315 0
1 -0.339449 0.41479 -0 -0 1 0 0 -1 0 0 0.172014 -0.985095 0
1 -0.002362 0.41479 -0 -0 1 0 0 -0.172014 0.985095 0 0 -1 0
0.941139 -0.002362 0.41479 -0 -0 1 0 0 -1 0 0 0.172014 -0.985095 0
0.941139 -0.339449 0.41479 -0 -0 1 0 0 -1 0 0 0.172014 -0.985095 0
0.999999 0.923272 0.923273 0 0 -1 0 0 -1 0 0 0.214935 0.976628 0
1 0.655822 0.923273 0 0 -1 0 0 -0.214935 -0.976628 0 -3.78867e-06 1 0
0.941139 0.655822 0.923273 0 0 -1 0 0 -1 0 0 0.214935 0.976628 0
0.941139 0.923272 0.923273 0 0 -1 0 0 -1 0 0 0.214935 0.976628 0
1 0.146083 0.400322 -0 -0 1 0 0 -1 0 0 0.158772 -0.987315 0
1 0.512106 0.400322 -0 -0 1 0 0 -0.158772 0.987315 0 0 -1 0
0.941139 0.512106 0.400322 -0 -0 1 0 0 -1 0 0 0.158772 -0.987315 0
0.941139 0.146083 0.400322 -0 -0 1 0 0 -1 0 0 0.158772 -0.987315 0
1 0.918544 -0.414789 0 0 -1 0 0 -1 0 0 0.222434 0.974948 0
1 0.660551 -0.414789 0 0 -1 0 0 -0.222434 -0.974948 0 0 1 0
0.941139 0.660551 -0.414789 0 0 -1 0 0 -1 0 0 0.222434 0.974948 0
0.941139 0.918544 -0.414789 0 0 -1 0 0 -1 0 0 0.222434 0.974948 0
1 0.923272 0.410062 0 -1 0 0 0 -1 0 0 0.113945 0 -0.993487
0.999999 0.923272 0.923273 0 -1 0 0 0 -0.113945 0 0.993487 1.97439e-06 0 -1
0.941139 0.923272 0.923273 0 -1 0 0 0 -1 0 0 0.113945 0 -0.993487
0.941139 0.923272 0.410062 0 -1 0 0 0 -1 0 0 0.113945 0 -0.993487
1 -0.353917 -0.266344 -0 -0 1 0 0 -1 0 0 0.158772 -0.987315 0
1 0.012106 -0.266344 -0 -0 1 0 0 -0.158772 0.987315 0 0 -1 0
0.941139 0.012106 -0.266344 -0 -0 1 0 0 -1 0 0 0.158772 -0.987315 0
0.941139 -0.353917 -0.266344 -0 -0 1 0 0 -1 0 0 0.158772 -0.987315 0
1 -0.344178 -0.923272 -0 -0 1 0 0 -1 0 0 0.16745 -0.985881 0
1 0.002367 -0.923272 -0 -0 1 0 0 -0.16745 0.985881 0 0 -1 0
0.94114 0.002367 -0.923272 -0 -0 1 0 0 -1 0 0 0.16745 -0.985881 0
0.941139 -0.344178 -0.923272 -0 -0 1 0 0 -1 0 0 0.16745 -0.985881 0
1 0.012106 0.266345 0 0 -1 0 0 -1 0 0 0.158772 0.987315 0
1 -0.353917 0.266345 0 0 -1 0 0 -0.158772 -0.987315 0 0 1 0
0.941139 -0.353917 0.266345 0 0 -1 0 0 -1 0 0 0.158772 0.987315 0
0.941139 0.012106 0.266345 0 0 -1 0 0 -1 0 0 0.158772 0.987315 0
1 0.146083 -0.933011 -0 -0 1 0 0 -1 0 0 0.15877 -0.987316 0
1 0.512106 -0.933011 -0 -0 1 0 0 -0.15877 0.987316 0 0 -1 0
0.94114 0.512106 -0.933011 -0 -0 1 0 0 -1 0 0 0.15877 -0.987316 0
0.94114 0.146083 -0.933011 -0 -0 1 0 0 -1 0 0 0.15877 -0.987316 0
1 0.660551 -0.918543 -0 -0 1 0 0 -1 0 0 0.22243 -0.974949 0
1 0.918544 -0.918543 -0 -0 1 0 0 -0.22243 0.974949 0 0 -1 0
0.94114 0.918544 -0.918543 -0 -0 1 0 0 -1 0 0 0.22243 -0.974949 0
0.94114 0.660551 -0.918543 -0 -0 1 0 0 -1 0 0 0.22243 -0.974949 0
1 0.655822 0.923273 0 1 -0 0 0 -1 0 0 0.113944 0 0.993487
1 0.655822 0.410061 0 1 -0 0 0 -0.113944 0 -0.993487 0 0 1
0.941139 0.655822 0.410061 0 1 -0 0 0 -1 0 0 0.113944 0 0.993487
0.941139 0.655822 0.923273 0 1 -0 0 0 -1 0 0 0.113944 0 0.993487
1 0.646083 -0.266344 -0 -0 1 0 0 -1 0 0 0.200957 -0.9796 0
1 0.933011 -0.266344 -0 -0 1 0 0 -0.200957 0.9796 0 0 -1 0
0.941139 0.933011 -0.266344 -0 -0 1 0 0 -1 0 0 0.200957 -0.9796 0
0.941139 0.646083 -0.266344 -0 -0 1 0 0 -1 0 0 0.200957 -0.9796 0
1 0.512106 0.933012 0 0 -1 0 0 -1 0 0 0.158772 0.987315 0
1 0.146083 0.933012 0 0 -1 0 0 -0.158772 -0.987315 0 0 1 0
0.941139 0.146083 0.933012 0 0 -1 0 0 -1 0 0 0.158772 0.987315 0
0.941139 0.512106 0.933012 0 0 -1 0 0 -1 0 0 0.158772 0.987315 0
1 -0.002362 0.918544 0 0 -1 0 0 -1 0 0 0.172014 0.985095 0
1 -0.339449 0.918544 0 0 -1 0 0 -0.172014 -0.985095 0 0 1 0
0.941139 -0.339449 0.918544 0 0 -1 0 0 -1 0 0 0.172014 0.985095 0
0.941139 -0.002362 0.918544 0 0 -1 0 0 -1 0 0 0.172014 0.985095 0
1 -0.344178 -0.410061 0 1 -0 0 0 -1 0 0 0.113945 0 0.993487
1 -0.344178 -0.923272 0 1 -0 0 0 -0.113945 0 -0.993487 0 0 1
0.941139 -0.344178 -0.923272 0 1 -0 0 0 -1 0 0 0.113945 0 0.993487
0.941139 -0.344178 -0.410061 0 1 -0 0 0 -1 0 0 0.113945 0 0.993487
1 0.933011 0.266345 0 0 -1 0 0 -1 0 0 0.200957 0.9796 0
1 0.646083 0.266345 0 0 -1 0 0 -0.200957 -0.9796 0 0 1 0
0.941139 0.646083 0.266345 0 0 -1 0 0 -1 0 0 0.200957 0.9796 0
0.941139 0.933011 0.266345 0 0 -1 0 0 -1 0 0 0.200957 0.9796 0
1 0.146083 0.933012 0 1 -0 0 0 -1 0 0 0.109829 0 0.99395
1 0.146083 0.400322 0 1 -0 0 0 -0.109829 0 -0.99395 0 0 1
0.941139 0.146083 0.400322 0 1 -0 0 0 -1 0 0 0.109829 0 0.99395
0.941139 0.146083 0.933012 0 1 -0 0 0 -1 0 0 0.109829 0 0.99395
1 -0.339449 0.918544 0 1 -0 0 0 -1 0 0 0.116055 0 0.993243
1 -0.339449 0.41479 0 1 -0 0 0 -0.116055 0 -0.993243 0 0 1
0.941139 -0.339449 0.41479 0 1 -0 0 0 -1 0 0 0.116055 0 0.993243
0.941139 -0.339449 0.918544 0 1 -0 0 0 -1 0 0 0.116055 0 0.993243
1 0.002367 -0.923272 0 -1 0 0 0 -1 0 0 0.113945 0 -0.993487
1 0.002367 -0.410061 0 -1 0 0 0 -0.113945 0 0.993487 0 0 -1
0.941139 0.002367 -0.410061 0 -1 0 0 0 -1 0 0 0.113945 0 -0.993487
0.94114 0.002367 -0.923272 0 -1 0 0 0 -1 0 0 0.113945 0 -0.993487
1 0.512106 0.400322 0 -1 0 0 0 -1 0 0 0.109829 0 -0.99395
1 0.512106 0.933012 0 -1 0 0 0 -0.109829 0 0.99395 0 0 -1
0.941139 0.512106 0.933012 0 -1 0 0 0 -1 0 0 0.109829 0 -0.99395
0.941139 0.512106 0.400322 0 -1 0 0 0 -1 0 0 0.109829 0 -0.99395
1 -0.002362 0.41479 0 -1 0 0 0 -1 0 0 0.116055 0 -0.993243
1 -0.002362 0.918544 0 -1 0 0 0 -0.116055 0 0.993243 0 0 -1
0.941139 -0.002362 0.918544 0 -1 0 0 0 -1 0 0 0.116055 0 -0.993243
0.941139 -0.002362 0.41479 0 -1 0 0 0 -1 0 0 0.116055 0 -0.993243
1 0.002367 -0.410061 0 0 -1 0 0 -1 0 0 0.167453 0.98588 0
1 -0.344178 -0.410061 0 0 -1 0 0 -0.167453 -0.98588 0 0 1 0
0.941139 -0.344178 -0.410061 0 0 -1 0 0 -1 0 0 0.167453 0.98588 0
0.941139 0.002367 -0.410061 0 0 -1 0 0 -1 0 0 0.167453 0.98588 0
1 0.933011 -0.266344 0 -1 0 0 0 -1 0 0 0.109829 0 -0.99395
1 0.933011 0.266345 0 -1 0 0 0 -0.109829 0 0.99395 0 0 -1
0.941139 0.933011 0.266345 0 -1 0 0 0 -1 0 0 0.109829 0 -0.99395
0.941139 0.933011 -0.266344 0 -1 0 0 0 -1 0 0 0.109829 0 -0.99395
1 0.918544 -0.918543 0 -1 0 0 0 -1 0 0 0.116055 0 -0.993243
1 0.918544 -0.414789 0 -1 0 0 0 -0.116055 0 0.993243 0 0 -1
0.941139 0.918544 -0.414789 0 -1 0 0 0 -1 0 0 0.116055 0 -0.993243
0.94114 0.918544 -0.918543 0 -1 0 0 0 -1 0 0 0.116055 0 -0.993243
1 0.655822 0.410061 -0 -0 1 0 0 -1 0 0 0.214938 -0.976628 0
1 0.923272 0.410062 -0 -0 1 0 0 -0.214938 0.976628 0 0 -1 0
0.941139 0.923272 0.410062 -0 -0 1 0 0 -1 0 0 0.214938 -0.976628 0
0.941139 0.655822 0.410061 -0 -0 1 0 0 -1 0 0 0.214938 -0.976628 0
0.893611 -0.999286 -0.214557 1 0 0 0.095416 0.48783 0 0 -1 0 -1 0
0.893611 -0.494375 -0.214557 1 0 0 0.095416 0.583792 0 -1.14203e-05 -1 0 -1 0
0.893611 -0.494375 0.223947 1 0 0 0.008857 0.583791 0 0 -1 0 -1 0
0.893611 -0.999286 0.223947 1 0 0 0.008857 0.48783 0 0 -1 0 -1 0
1 -0.999286 0.223947 0 1 -0 0 0 -1 0 0 0.235778 0 0.971807
1 -0.999286 -0.214557 0 1 -0 0 0 -0.235778 0 -0.971807 0 0 1
0.893611 -0.999286 -0.214557 0 1 -0 0 0 -1 0 0 0.235778 0 0.971807
0.893611 -0.999286 0.223947 0 1 -0 0 0 -1 0 0 0.235778 0 0.971807
1 -0.494375 0.223947 0 0 -1 0 0 -1 0 0 0.206181 0.978514 0
1 -0.999286 0.223947 0 0 -1 0 0 -0.206181 -0.978514 0 0 1 0
0.893611 -0.999286 0.223947 0 0 -1 0 0 -1 0 0 0.206181 0.978514 0
0.893611 -0.494375 0.223947 0 0 -1 0 0 -1 0 0 0.206181 0.978514 0
1 -0.494375 -0.214557 0 -1 0 0 0 -1 0 0 0.235778 0 -0.971807
1 -0.494375 0.223947 0 -1 0 0 0 -0.235778 0 0.971807 0 0 -1
0.893611 -0.494375 0.223947 0 -1 0 0 0 -1 0 0 0.235778 0 -0.971807
0.893611 -0.494375 -0.214557 0 -1 0 0 0 -1 0 0 0.235778 0 -0.971807
-1.1109 1.11163 -1.1109 -1 -0 -0 0.735231 0.58365 0 1 0 0 0 1
-1.1109 1.11163 -0.370299 -1 -0 -0 0.735231 0.464361 0 1 0 0 0 1
-1.1109 1.20314 -0.370299 -1 -0 -0 0.749569 0.464361 0 1 0 0 0 1
-1.1109 1.20314 -1.1109 -1 -0 -0 0.749569 0.58365 0 1 0 0 0 1
-1.1109 1.11163 0.370298 -1 -0 -0 0.735231 0.345072 0 1 0 0 0 1
-1.1109 1.20314 0.370298 -1 -0 -0 0.749569 0.345072 0 1 0 0 0 1
-1.1109 1.11163 1.1109 -1 -0 -0 0.735231 0.225782 0 1 0 0 0 1
-1.1109 1.20314 1.1109 -1 -0 -0 0.749569 0.225782 0 1 0 0 0 1
1.1109 1.11163 0.370299 1 0 0 0.665729 0.345071 0 -1 0 0 0 1
1.1109 1.11163 -0.370298 1 0 0 0.665729 0.464361 0 -1 0 0 0 1
1.1109 1.20314 -0.370298 1 0 0 0.651391 0.464361 0 -1 0 0 0 1
1.1109 1.20314 0.370299 1 0 0 0.651391 0.345071 0 -1 0 0 0 1
1.1109 1.11163 1.1109 1 0 0 0.665729 0.225782 0 -1 0 0 0 1
1.1109 1.11163 -1.1109 1 0 0 0.665729 0.58365 0 -1 0 0 0 1
1.1109 1.20314 -1.1109 1 0 0 0.651391 0.58365 0 -1 0 0 0 1
1.1109 1.20314 1.1109 1 0 0 0.651391 0.225782 0 -1 0 0 0 1
1 1 -0.999999 0 -0.7048 -0.7094 0.749569 0.565788 1.32973e-05 0.709403 -0.704803 -1 0 0
-1 1 -1 0 -0.7048 -0.7094 0.749569 0.243645 3.17488e-05 0.709403 -0.704803 -1 2.53312e-07 -2.51674e-07
-1.1109 1.11163 -1.1109 0 -0.7048 -0.7094 0.774223 0.225782 1.32973e-05 0.709403 -0.704803 -1 0 0
1.1109 1.11163 -1.1109 0 -0.7048 -0.7094 0.774223 0.58365 1.32973e-05 0.709403 -0.704803 -1 0 0
-0.995602 1.20314 0.995602 0 0 -1 0 0 0 -1 0 -0.999048 0.0436165 0
0.995601 1.20314 0.995603 0 0 -1 0 0 0.999048 -0.0436165 0 -1 0 0
0.995601 1.11621 0.995603 0 0 -1 0 0 0 -1 0 -0.999048 0.0436165 0
-0.995602 1.11621 0.995602 0 0 -1 0 0 0 -1 0 -0.999048 0.0436165 0
0.995602 1.20314 -0.370298 -1 -0 -0 0 0 0 -1 0 0 0.137699 0.990474
0.995603 1.20314 -0.995602 -1 -0 -0 0 0 0 -0.137699 -0.990474 0 0 1
0.995603 1.11621 -0.995602 -1 -0 -0 0 0 0 -1 0 0 0.137699 0.990474
0.995602 1.11621 -0.370298 -1 -0 -0 0 0 0 -1 0 0 0.130666 0.991426
0.995602 1.20314 0.370299 -1 -0 -0 0 0 0 -1 0 0 0.116581 0.993181
0.995602 1.20314 -0.370298 -1 -0 -0 0 0 0 -0.116581 -0.993181 0 0 1
0.995602 1.11621 0.370299 -1 -0 -0 0 0 0 -1 0 0 0.130666 0.991426
0.995601 1.20314 0.995603 -1 -0 -0 0 0 0 -1 0 0 0.137699 0.990474
0.995602 1.20314 0.370299 -1 -0 -0 0 0 0 -0.137699 -0.990474 0 0 1
0.995601 1.11621 0.995603 -1 -0 -0 0 0 0 -1 0 0 0.137699 0.990474
-0.995602 1.20314 0.370298 1 0 0 0 0 0 -1 0 0 0.137699 -0.990474
-0.995602 1.20314 0.995602 1 0 0 0 0 0 -0.137699 0.990474 0 0 -1
-0.995602 1.11621 0.995602 1 0 0 0 0 0 -1 0 0 0.137699 -0.990474
-0.995602 1.11621 0.370298 1 0 0 0 0 0 -1 0 0 0.130666 -0.991426
-0.995602 1.20314 -0.370299 1 0 0 0 0 0 -1 0 0 0.116581 -0.993181
-0.995602 1.20314 0.370298 1 0 0 0 0 0 -0.116581 0.993181 0 0 -1
-0.995602 1.11621 -0.370299 1 0 0 0 0 0 -1 0 0 0.123627 -0.992329
-0.995602 1.20314 -0.995602 1 0 0 0 0 0 -1 0 0 0.1377 -0.990474
-0.995602 1.20314 -0.370299 1 0 0 0 0 0 -0.1377 0.990474 0 0 -1
-0.995602 1.11621 -0.995602 1 0 0 0 0 0 -1 0 0 0.1377 -0.990474
1.1109 1.11163 -1.1109 0 0 -1 0.774223 0.58365 0 1 0 -1 0 0
-1.1109 1.11163 -1.1109 0 0 -1 0.774223 0.225782 0 1 0 -1 0 0
-1.1109 1.20314 -1.1109 0 0 -1 0.794433 0.225782 0 1 0 -1 0 0
1.1109 1.20314 -1.1109 0 0 -1 0.794433 0.58365 0 1 0 -1 0 0
-1.1109 1.11163 1.1109 -0 -0 1 0.814643 0.225782 0 -1 0 -1 0 0
1.1109 1.11163 1.1109 -0 -0 1 0.814643 0.58365 0 -1 0 -1 0 0
1.1109 1.20314 1.1109 -0 -0 1 0.794433 0.58365 0 -1 0 -1 0 0
-1.1109 1.20314 1.1109 -0 -0 1 0.794433 0.225782 0 -1 0 -1 0 0
0.995602 1.20314 0.370299 0 1 -0 0.625928 0.345072 1 0 -5.44335e-05 0 0 1
0.995601 1.20314 0.995603 0 1 -0 0.625928 0.244353 1 0 -1.22614e-05 4.56169e-07 0 1
1.1109 1.20314 1.1109 0 1 -0 0.651391 0.225782 1 0 -3.62329e-05 1.53647e-06 0 1
1.1109 1.20314 0.370299 0 1 -0 0.651391 0.345071 1 0 -3.63759e-05 0 0 1
0.995602 1.20314 -0.370298 0 1 -0 0.625928 0.464361 1 0 0 -1.08031e-06 0 1
-0.995602 1.20314 0.995602 0 1 -0 0.186166 0.244353 1 0 5.64361e-06 -5.13037e-06 0 1
-1.1109 1.20314 1.1109 0 1 -0 0.160703 0.225782 1 0 5.59027e-06 2.64493e-06 0 1
-0.995602 1.20314 0.370298 0 1 -0 0.186166 0.345072 1 0 0 0 0 1
-1.1109 1.20314 0.370298 0 1 -0 0.160703 0.345072 1 0 1.06087e-05 -8.56032e-07 0 1
-0.995602 1.20314 -0.370299 0 1 -0 0.186166 0.464361 1 0 0 0 0 1
-1.1109 1.20314 -0.370299 0 1 -0 0.160703 0.464361 1 0 0 0 0 1
-0.995602 1.20314 -0.995602 0 1 -0 0.186166 0.565079 1 0 -9.83814e-06 -1.62427e-06 0 1
-1.1109 1.20314 -1.1109 0 1 -0 0.160703 0.58365 1 0 0 -1.62427e-06 0 1
0.995603 1.20314 -0.995602 0 1 -0 0.625928 0.565079 1 0 8.6677e-06 2.70277e-06 0 1
1.1109 1.20314 -1.1109 0 1 -0 0.651391 0.58365 1 0 8.6677e-06 -2.0564e-06 0 1
1.1109 1.20314 -0.370298 0 1 -0 0.651391 0.464361 1 0 1.73354e-05 -8.64262e-07 0 1
0.995602 1.11621 0.370299 0 1 -0 0.788185 0.201602 -1.08031e-06 0 1 -1 0 -4.83713e-07
-0.995602 1.11621 0.370298 0 1 -0 0.788185 0.011034 0 0 1 -1 0 -5.03761e-07
-0.995602 1.11621 0.995602 0 1 -0 0.87024 0.011034 -1.62046e-06 0 1 -1 0 -4.78805e-07
0.995601 1.11621 0.995603 0 1 -0 0.87024 0.201602 -1.62046e-06 0 1 -1 0 -4.78805e-07
0.995602 1.11621 -0.370298 0 1 -0 0.708578 0.201602 -1.08031e-06 0 1 -1 0 -4.83713e-07
-0.995602 1.11621 -0.370299 0 1 -0 0.708578 0.011034 -1.08031e-06 0 1 -1 0 -4.88829e-07
0.995603 1.11621 -0.995602 0 1 -0 0.626523 0.201602 -1.62046e-06 0 1 -1 0 -4.78805e-07
-0.995602 1.11621 -0.995602 0 1 -0 0.626523 0.011034 0 0 1 -1 0 0
0.995603 1.20314 -0.995602 -0 -0 1 0 0 0 -1 0 0.999048 0.0436165 0
-0.995602 1.20314 -0.995602 -0 -0 1 0 0 -0.999048 -0.0436165 0 1 0 0
-0.995602 1.11621 -0.995602 -0 -0 1 0 0 0 -1 0 0.999048 0.0436165 0
0.995603 1.11621 -0.995602 -0 -0 1 0 0 0 -1 0 0.999048 0.0436165 0
3 0 1 2
3 0 2 3
3 4 5 3
3 4 3 6
3 7 8 6
3 7 6 9
3 10 11 12
3 10 12 13
3 14 10 13
3 11 15 16
3 11 16 12
3 14 13 17
3 18 19 20
3 18 20 21
3 22 23 24
3 22 24 25
3 26 22 25
3 26 25 27
3 28 26 27
3 28 27 29
3 30 28 29
3 30 29 31
3 32 33 34
3 32 34 35
3 36 32 35
3 37 38 32
3 37 32 36
3 38 33 32
3 38 39 33
3 40 41 38
3 40 38 37
3 41 39 38
3 42 40 37
3 42 37 43
3 43 37 36
3 44 42 43
3 43 36 45
3 44 43 46
3 46 43 45
3 47 45 48
3 45 36 49
3 45 49 48
3 46 45 47
3 47 48 50
3 36 35 49
3 41 51 39
3 52 53 54
3 52 54 55
3 56 52 55
3 56 55 57
3 58 56 57
3 58 57 59
3 60 58 59
3 60 59 61
3 62 63 64
3 62 64 65
3 66 63 62
3 67 68 64
3 69 67 64
3 69 64 63
3 67 70 68
3 70 71 68
3 72 73 68
3 74 72 68
3 74 68 71
3 70 75 71
3 75 69 63
3 75 63 71
3 76 77 63
3 66 76 63
3 78 79 63
3 78 63 77
3 79 71 63
3 76 80 77
3 80 81 82
3 80 82 77
3 83 77 82
3 83 84 77
3 85 86 84
3 85 84 87
3 86 77 84
3 88 85 87
3 88 87 89
3 90 91 87
3 90 87 92
3 91 89 87
3 93 88 89
3 86 93 77
3 93 89 77
3 94 78 77
3 94 77 89
3 95 94 89
3 95 89 71
3 79 95 71
3 96 97 71
3 96 71 89
3 97 98 71
3 99 74 71
3 99 71 98
3 100 96 89
3 100 89 101
3 91 102 89
3 102 101 89
3 103 100 101
3 103 101 98
3 97 103 98
3 104 105 101
3 104 101 92
3 105 106 101
3 107 92 101
3 108 98 101
3 102 107 101
3 109 108 101
3 109 101 106
3 110 104 92
3 110 92 111
3 107 90 92
3 112 110 111
3 112 111 106
3 105 112 106
3 113 109 106
3 113 106 114
3 115 113 114
3 116 117 114
3 116 114 118
3 117 98 114
3 115 114 98
3 108 115 98
3 119 73 98
3 117 119 98
3 120 99 98
3 120 98 73
3 119 121 73
3 121 118 73
3 72 120 73
3 121 116 118
3 122 123 124
3 122 124 125
3 126 127 128
3 126 128 129
3 130 131 132
3 130 132 133
3 134 135 136
3 134 136 137
3 138 139 140
3 138 140 141
3 142 143 144
3 142 144 145
3 146 147 148
3 146 148 149
3 150 151 152
3 150 152 153
3 154 155 156
3 154 156 157
3 158 159 160
3 158 160 161
3 162 163 164
3 162 164 165
3 166 162 165
3 163 167 168
3 163 168 164
3 166 165 169
3 170 171 172
3 170 172 173
3 174 175 176
3 174 176 177
3 178 179 180
3 178 180 181
3 182 183 184
3 182 184 185
3 186 187 188
3 186 188 189
3 190 191 192
3 190 192 193
3 194 195 196
3 194 196 197
3 198 199 200
3 198 200 201
3 202 203 204
3 202 204 205
3 206 207 208
3 206 208 209
3 210 211 212
3 210 212 213
3 214 215 216
3 214 216 217
3 218 219 220
3 218 220 221
3 222 223 224
3 222 224 225
3 226 227 228
3 226 228 229
3 230 231 232
3 230 232 233
3 234 235 236
3 234 236 237
3 238 239 240
3 238 240 241
3 242 243 244
3 242 244 245
3 246 247 248
3 246 248 249
3 250 251 252
3 250 252 253
3 254 255 256
3 254 256 257
3 258 259 260
3 258 260 261
3 262 263 264
3 262 264 265
3 266 267 268
3 266 268 269
3 270 271 272
3 270 272 273
3 274 275 276
3 274 276 277
3 278 279 280
3 278 280 281
3 282 283 284
3 282 284 285
3 286 287 288
3 286 288 289
3 290 291 292
3 290 292 293
3 294 295 296
3 294 296 297
3 298 299 300
3 298 300 301
3 302 303 304
3 302 304 305
3 306 307 308
3 306 308 309
3 310 311 312
3 310 312 313
3 314 315 316
3 314 316 317
3 318 319 320
3 318 320 321
3 322 323 324
3 322 324 325
3 326 327 328
3 326 328 329
3 330 331 332
3 330 332 333
3 334 335 336
3 334 336 337
3 335 338 339
3 335 339 336
3 338 340 341
3 338 341 339
3 342 343 344
3 342 344 345
3 346 342 345
3 343 347 348
3 343 348 344
3 346 345 349
3 350 351 352
3 350 352 353
3 354 355 356
3 354 356 357
3 358 359 360
3 358 360 361
3 362 363 361
3 362 361 364
3 365 366 364
3 365 364 367
3 368 369 370
3 368 370 371
3 372 373 371
3 372 371 374
3 375 376 374
3 375 374 377
3 378 379 380
3 378 380 381
3 382 383 384
3 382 384 385
3 386 387 388
3 386 388 389
3 390 386 389
3 387 391 392
3 387 392 388
3 391 393 394
3 391 394 392
3 393 395 396
3 393 396 394
3 395 397 398
3 395 398 396
3 397 399 400
3 397 400 398
3 399 390 401
3 399 401 400
3 390 389 401
3 402 403 404
3 402 404 405
3 406 403 402
3 406 407 403
3 408 407 406
3 408 409 407
3 410 411 412
3 410 412 413
