ply
format ascii 1.0
comment Created by Blender 2.78 (sub 0) - www.blender.org, source file: ''
element vertex 100
property float x
property float y
property float z
property float nx
property float ny
property float nz
property float s
property float t
element face 162
property list uchar uint vertex_indices
end_header
-6.215965 -7.991955 0.000000 -0.000000 0.000000 1.000000 0.111179 0.000088
-7.991955 -6.215965 0.000000 -0.000000 0.000000 1.000000 0.000088 0.085236
-7.991955 -7.991955 0.000000 -0.000000 0.000000 1.000000 0.000088 0.000088
-4.439975 -7.991955 0.000000 -0.000000 0.000000 1.000000 0.222271 0.000088
-6.215965 -6.215965 0.000000 -0.000000 0.000000 1.000000 0.111179 0.085236
-2.663985 -7.991955 0.000000 -0.000000 0.000000 1.000000 0.333362 0.000088
-4.439975 -6.215965 0.000000 -0.000000 0.000000 1.000000 0.222271 0.085236
-0.887995 -7.991955 0.000000 -0.000000 0.000000 1.000000 0.444454 0.000088
-2.663985 -6.215965 0.000000 -0.000000 0.000000 1.000000 0.333363 0.085236
0.887995 -7.991955 0.000000 -0.000000 0.000000 1.000000 0.555546 0.000088
-0.887995 -6.215965 0.000000 -0.000000 0.000000 1.000000 0.444454 0.085236
2.663985 -7.991955 0.000000 -0.000000 0.000000 1.000000 0.666637 0.000088
0.887995 -6.215965 0.000000 -0.000000 0.000000 1.000000 0.555546 0.085236
4.439975 -7.991955 0.000000 -0.000000 0.000000 1.000000 0.777729 0.000088
2.663985 -6.215965 0.000000 -0.000000 0.000000 1.000000 0.666637 0.085236
6.215965 -7.991955 0.000000 -0.000000 0.000000 1.000000 0.888821 0.000088
4.439975 -6.215965 0.000000 -0.000000 0.000000 1.000000 0.777729 0.085236
7.991955 -7.991955 0.000000 -0.000000 0.000000 1.000000 0.999912 0.000088
6.215965 -6.215965 0.000000 -0.000000 0.000000 1.000000 0.888821 0.085236
-7.991955 -4.439975 0.000000 -0.000000 0.000000 1.000000 0.000088 0.170384
-6.215965 -4.439975 0.000000 -0.000000 0.000000 1.000000 0.111179 0.170384
-4.439975 -4.439975 0.000000 -0.000000 0.000000 1.000000 0.222271 0.170384
-2.663985 -4.439975 0.000000 -0.000000 0.000000 1.000000 0.333363 0.170384
-0.887995 -4.439975 0.000000 -0.000000 0.000000 1.000000 0.444454 0.170384
0.887995 -4.439975 0.000000 -0.000000 0.000000 1.000000 0.555546 0.170384
2.663985 -4.439975 0.000000 -0.000000 0.000000 1.000000 0.666637 0.170384
4.439975 -4.439975 0.000000 -0.000000 0.000000 1.000000 0.777729 0.170384
7.991955 -6.215965 0.000000 -0.000000 0.000000 1.000000 0.999912 0.085236
6.215965 -4.439975 0.000000 -0.000000 0.000000 1.000000 0.888821 0.170384
-7.991955 -2.663985 0.000000 -0.000000 0.000000 1.000000 0.000088 0.255532
-6.215965 -2.663985 0.000000 -0.000000 0.000000 1.000000 0.111179 0.255532
-4.439975 -2.663985 0.000000 -0.000000 0.000000 1.000000 0.222271 0.255532
-2.663985 -2.663985 0.000000 -0.000000 0.000000 1.000000 0.333363 0.255532
-0.887995 -2.663985 0.000000 -0.000000 0.000000 1.000000 0.444454 0.255532
0.887995 -2.663985 0.000000 -0.000000 0.000000 1.000000 0.555546 0.255532
2.663985 -2.663985 0.000000 -0.000000 0.000000 1.000000 0.666637 0.255532
4.439975 -2.663985 0.000000 -0.000000 0.000000 1.000000 0.777729 0.255532
7.991955 -4.439975 0.000000 -0.000000 0.000000 1.000000 0.999912 0.170384
6.215965 -2.663985 0.000000 -0.000000 0.000000 1.000000 0.888821 0.255532
-7.991955 -0.887995 0.000000 -0.000000 0.000000 1.000000 0.000088 0.340680
-6.215965 -0.887995 0.000000 -0.000000 0.000000 1.000000 0.111179 0.340680
-4.439975 -0.887995 0.000000 -0.000000 0.000000 1.000000 0.222271 0.340680
-2.663985 -0.887995 0.000000 -0.000000 0.000000 1.000000 0.333363 0.340680
-0.887995 -0.887995 0.000000 -0.000000 0.000000 1.000000 0.444454 0.340680
0.887995 -0.887995 0.000000 -0.000000 0.000000 1.000000 0.555546 0.340680
2.663985 -0.887995 0.000000 -0.000000 0.000000 1.000000 0.666637 0.340680
4.439975 -0.887995 0.000000 -0.000000 0.000000 1.000000 0.777729 0.340680
7.991955 -2.663985 0.000000 -0.000000 0.000000 1.000000 0.999912 0.255532
6.215965 -0.887995 0.000000 -0.000000 0.000000 1.000000 0.888821 0.340680
-7.991955 0.887995 0.000000 -0.000000 0.000000 1.000000 0.000088 0.425828
-6.215965 0.887995 0.000000 -0.000000 0.000000 1.000000 0.111179 0.425828
-4.439975 0.887995 0.000000 -0.000000 0.000000 1.000000 0.222271 0.425828
-2.663985 0.887995 0.000000 -0.000000 0.000000 1.000000 0.333363 0.425828
-0.887995 0.887995 0.000000 -0.000000 0.000000 1.000000 0.444454 0.425828
0.887995 0.887995 0.000000 -0.000000 0.000000 1.000000 0.555546 0.425828
2.663985 0.887995 0.000000 -0.000000 0.000000 1.000000 0.666637 0.425828
4.439975 0.887995 0.000000 -0.000000 0.000000 1.000000 0.777729 0.425828
7.991955 -0.887995 0.000000 -0.000000 0.000000 1.000000 0.999912 0.340680
6.215965 0.887995 0.000000 -0.000000 0.000000 1.000000 0.888821 0.425828
-7.991955 2.663985 0.000000 -0.000000 0.000000 1.000000 0.000088 0.510976
-6.215965 2.663985 0.000000 -0.000000 0.000000 1.000000 0.111179 0.510976
-4.439975 2.663985 0.000000 -0.000000 0.000000 1.000000 0.222271 0.510976
-2.663985 2.663985 0.000000 -0.000000 0.000000 1.000000 0.333363 0.510976
-0.887995 2.663985 0.000000 -0.000000 0.000000 1.000000 0.444454 0.510976
0.887995 2.663985 0.000000 -0.000000 0.000000 1.000000 0.555546 0.510976
2.663985 2.663985 0.000000 -0.000000 0.000000 1.000000 0.666637 0.510976
4.439975 2.663985 0.000000 -0.000000 0.000000 1.000000 0.777729 0.510976
7.991955 0.887995 0.000000 -0.000000 0.000000 1.000000 0.999912 0.425828
6.215965 2.663985 0.000000 -0.000000 0.000000 1.000000 0.888821 0.510976
-7.991955 4.439975 0.000000 -0.000000 0.000000 1.000000 0.000088 0.596124
-6.215965 4.439975 0.000000 -0.000000 0.000000 1.000000 0.111179 0.596124
-4.439975 4.439975 0.000000 -0.000000 0.000000 1.000000 0.222271 0.596124
-2.663985 4.439975 0.000000 -0.000000 0.000000 1.000000 0.333363 0.596124
-0.887995 4.439975 0.000000 -0.000000 0.000000 1.000000 0.444454 0.596124
0.887995 4.439975 0.000000 -0.000000 0.000000 1.000000 0.555546 0.596124
2.663985 4.439975 0.000000 -0.000000 0.000000 1.000000 0.666637 0.596124
4.439975 4.439975 0.000000 -0.000000 0.000000 1.000000 0.777729 0.596124
7.991955 2.663985 0.000000 -0.000000 0.000000 1.000000 0.999912 0.510976
6.215965 4.439975 0.000000 -0.000000 0.000000 1.000000 0.888821 0.596124
-7.991955 6.215965 0.000000 -0.000000 0.000000 1.000000 0.000088 0.681272
-6.215965 6.215965 0.000000 -0.000000 0.000000 1.000000 0.111179 0.681272
-4.439975 6.215965 0.000000 -0.000000 0.000000 1.000000 0.222271 0.681272
-2.663985 6.215965 0.000000 -0.000000 0.000000 1.000000 0.333363 0.681272
-0.887995 6.215965 0.000000 -0.000000 0.000000 1.000000 0.444454 0.681272
0.887995 6.215965 0.000000 -0.000000 0.000000 1.000000 0.555546 0.681272
2.663985 6.215965 0.000000 -0.000000 0.000000 1.000000 0.666637 0.681272
4.439975 6.215965 0.000000 -0.000000 0.000000 1.000000 0.777729 0.681272
7.991955 4.439975 0.000000 -0.000000 0.000000 1.000000 0.999912 0.596124
6.215965 6.215965 0.000000 -0.000000 0.000000 1.000000 0.888821 0.681272
-7.991955 7.991955 0.000000 -0.000000 0.000000 1.000000 0.000088 0.766420
-6.215965 7.991955 0.000000 -0.000000 0.000000 1.000000 0.111179 0.766420
-4.439975 7.991955 0.000000 -0.000000 0.000000 1.000000 0.222271 0.766420
-2.663985 7.991955 0.000000 -0.000000 0.000000 1.000000 0.333363 0.766420
-0.887995 7.991955 0.000000 -0.000000 0.000000 1.000000 0.444454 0.766420
0.887995 7.991955 0.000000 -0.000000 0.000000 1.000000 0.555546 0.766420
2.663985 7.991955 0.000000 -0.000000 0.000000 1.000000 0.666637 0.766420
4.439975 7.991955 0.000000 -0.000000 0.000000 1.000000 0.777729 0.766420
7.991955 6.215965 0.000000 -0.000000 0.000000 1.000000 0.999912 0.681272
6.215965 7.991955 0.000000 -0.000000 0.000000 1.000000 0.888821 0.766420
7.991955 7.991955 0.000000 -0.000000 0.000000 1.000000 0.999912 0.766420
3 0 1 2
3 3 4 0
3 5 6 3
3 7 8 5
3 9 10 7
3 11 12 9
3 13 14 11
3 15 16 13
3 17 18 15
3 4 19 1
3 6 20 4
3 8 21 6
3 10 22 8
3 12 23 10
3 14 24 12
3 16 25 14
3 18 26 16
3 27 28 18
3 20 29 19
3 21 30 20
3 22 31 21
3 23 32 22
3 24 33 23
3 25 34 24
3 26 35 25
3 28 36 26
3 37 38 28
3 30 39 29
3 31 40 30
3 32 41 31
3 33 42 32
3 34 43 33
3 35 44 34
3 36 45 35
3 38 46 36
3 47 48 38
3 40 49 39
3 41 50 40
3 42 51 41
3 43 52 42
3 44 53 43
3 45 54 44
3 46 55 45
3 48 56 46
3 57 58 48
3 50 59 49
3 51 60 50
3 52 61 51
3 53 62 52
3 54 63 53
3 55 64 54
3 56 65 55
3 58 66 56
3 67 68 58
3 60 69 59
3 61 70 60
3 62 71 61
3 63 72 62
3 64 73 63
3 65 74 64
3 66 75 65
3 68 76 66
3 77 78 68
3 70 79 69
3 71 80 70
3 72 81 71
3 73 82 72
3 74 83 73
3 75 84 74
3 76 85 75
3 78 86 76
3 87 88 78
3 80 89 79
3 81 90 80
3 82 91 81
3 83 92 82
3 84 93 83
3 85 94 84
3 86 95 85
3 88 96 86
3 97 98 88
3 0 4 1
3 3 6 4
3 5 8 6
3 7 10 8
3 9 12 10
3 11 14 12
3 13 16 14
3 15 18 16
3 17 27 18
3 4 20 19
3 6 21 20
3 8 22 21
3 10 23 22
3 12 24 23
3 14 25 24
3 16 26 25
3 18 28 26
3 27 37 28
3 20 30 29
3 21 31 30
3 22 32 31
3 23 33 32
3 24 34 33
3 25 35 34
3 26 36 35
3 28 38 36
3 37 47 38
3 30 40 39
3 31 41 40
3 32 42 41
3 33 43 42
3 34 44 43
3 35 45 44
3 36 46 45
3 38 48 46
3 47 57 48
3 40 50 49
3 41 51 50
3 42 52 51
3 43 53 52
3 44 54 53
3 45 55 54
3 46 56 55
3 48 58 56
3 57 67 58
3 50 60 59
3 51 61 60
3 52 62 61
3 53 63 62
3 54 64 63
3 55 65 64
3 56 66 65
3 58 68 66
3 67 77 68
3 60 70 69
3 61 71 70
3 62 72 71
3 63 73 72
3 64 74 73
3 65 75 74
3 66 76 75
3 68 78 76
3 77 87 78
3 70 80 79
3 71 81 80
3 72 82 81
3 73 83 82
3 74 84 83
3 75 85 84
3 76 86 85
3 78 88 86
3 87 97 88
3 80 90 89
3 81 91 90
3 82 92 91
3 83 93 92
3 84 94 93
3 85 95 94
3 86 96 95
3 88 98 96
3 97 99 98
