ply
format ascii 1.0
comment Created by Blender 2.78 (sub 0) - www.blender.org, source file: ''
element vertex 523
property float x
property float y
property float z
property float nx
property float ny
property float nz
property float s
property float t
property uchar red
property uchar green
property uchar blue
element face 246
property list uchar uint vertex_indices
end_header
-0.339635 0.339635 4.702123 0.434898 0.869797 -0.233061 0.844629 0.427232 255 255 255
0.339635 0.000000 4.702123 0.434898 0.869797 -0.233061 0.830528 0.325296 255 255 255
-0.339635 0.294133 4.532305 0.434898 0.869797 -0.233061 0.866541 0.427328 255 255 255
-0.339635 0.294133 4.532305 0.434898 0.636734 -0.636736 0.732269 0.170110 255 255 255
0.339635 0.000000 4.702123 0.434898 0.636734 -0.636736 0.698093 0.272130 255 255 255
-0.339635 0.169818 4.407990 0.434898 0.636734 -0.636736 0.709685 0.170198 255 255 255
-0.339635 0.169818 4.407990 0.434898 0.233062 -0.869796 0.709685 0.170198 255 255 255
0.339635 0.000000 4.702123 0.434898 0.233062 -0.869796 0.698093 0.272130 255 255 255
-0.339635 -0.000000 4.362488 0.434898 0.233062 -0.869796 0.683995 0.170193 255 255 255
-0.339635 -0.000000 4.362488 0.434898 -0.233062 -0.869796 0.683995 0.170193 255 255 255
0.339635 0.000000 4.702123 0.434898 -0.233062 -0.869796 0.698093 0.272130 255 255 255
-0.339635 -0.169818 4.407990 0.434898 -0.233062 -0.869796 0.662082 0.170097 255 255 255
-0.339635 -0.169818 4.407990 0.434898 -0.636734 -0.636736 0.591895 0.102020 255 255 255
0.339635 0.000000 4.702123 0.434898 -0.636734 -0.636736 0.626073 0.000000 255 255 255
-0.339635 -0.294133 4.532305 0.434898 -0.636734 -0.636736 0.614479 0.101932 255 255 255
-0.339635 -0.294133 4.532305 0.434898 -0.869797 -0.233061 0.614479 0.101932 255 255 255
0.339635 0.000000 4.702123 0.434898 -0.869797 -0.233061 0.626073 0.000000 255 255 255
-0.339635 -0.339635 4.702123 0.434898 -0.869797 -0.233061 0.640169 0.101936 255 255 255
-0.339635 -0.339635 4.702123 0.434898 -0.869796 0.233061 0.640169 0.101936 255 255 255
0.339635 0.000000 4.702123 0.434898 -0.869796 0.233061 0.626073 0.000000 255 255 255
-0.339635 -0.294133 4.871941 0.434898 -0.869796 0.233061 0.662082 0.102033 255 255 255
-0.339635 -0.294133 4.871941 0.434898 -0.636736 0.636735 0.802456 0.170110 255 255 255
0.339635 0.000000 4.702123 0.434898 -0.636736 0.636735 0.768280 0.272130 255 255 255
-0.339635 -0.169818 4.996256 0.434898 -0.636736 0.636735 0.779872 0.170198 255 255 255
-0.339635 -0.169818 4.996256 0.434898 -0.233062 0.869796 0.779872 0.170198 255 255 255
0.339635 0.000000 4.702123 0.434898 -0.233062 0.869796 0.768280 0.272130 255 255 255
-0.339635 -0.000000 5.041759 0.434898 -0.233062 0.869796 0.754182 0.170193 255 255 255
-0.339635 -0.000000 5.041759 0.434898 0.233062 0.869796 0.754182 0.170193 255 255 255
0.339635 0.000000 4.702123 0.434898 0.233062 0.869796 0.768280 0.272130 255 255 255
-0.339635 0.169817 4.996256 0.434898 0.233062 0.869796 0.732269 0.170097 255 255 255
-0.339635 0.169817 4.996256 0.434898 0.636734 0.636737 0.796354 0.427315 255 255 255
0.339635 0.000000 4.702123 0.434898 0.636734 0.636737 0.830528 0.325296 255 255 255
-0.339635 0.294133 4.871941 0.434898 0.636734 0.636737 0.818939 0.427227 255 255 255
-0.339635 0.294133 4.871941 0.434898 0.869797 0.233061 0.818939 0.427227 255 255 255
0.339635 0.000000 4.702123 0.434898 0.869797 0.233061 0.830528 0.325296 255 255 255
-0.339635 0.339635 4.702123 0.434898 0.869797 0.233061 0.844629 0.427232 255 255 255
-0.339635 -0.169818 4.996256 0.000000 -0.258820 0.965926 0.779872 0.170198 255 255 255
-1.469320 -0.000000 5.041759 0.000000 -0.258820 0.965926 0.754182 0.000096 255 255 255
-1.469320 -0.169818 4.996256 0.000000 -0.258820 0.965926 0.779872 0.000101 255 255 255
-1.469320 0.294133 4.871941 0.000000 0.000000 0.000000 0.000000 0.000000 255 255 255
-1.469320 0.339635 4.702123 0.000000 0.000000 0.000000 0.000000 0.000000 255 255 255
-1.469320 0.294133 4.871941 0.000000 0.000000 0.000000 0.000000 0.000000 255 255 255
-0.339635 -0.169818 4.407990 0.000000 -0.258820 -0.965926 0.662082 0.170097 255 255 255
-1.469320 -0.000000 4.362488 0.000000 -0.258820 -0.965926 0.683995 0.000096 255 255 255
-0.339635 -0.000000 4.362488 0.000000 -0.258820 -0.965926 0.683995 0.170193 255 255 255
-0.339635 0.294133 4.871941 0.000000 0.707106 0.707108 0.818939 0.427227 255 255 255
-1.469320 0.169817 4.996256 0.000000 0.707106 0.707108 0.796354 0.597412 255 255 255
-0.339635 0.169817 4.996256 0.000000 0.707106 0.707108 0.796354 0.427315 255 255 255
-0.339635 -0.339635 4.702123 -0.000000 -0.965926 -0.258819 0.640169 0.101936 255 255 255
-1.469320 -0.294133 4.532305 -0.000000 -0.965926 -0.258819 0.614479 0.272029 255 255 255
-0.339635 -0.294133 4.532305 -0.000000 -0.965926 -0.258819 0.614479 0.101932 255 255 255
-0.339635 -0.169818 4.996256 0.000000 -0.707107 0.707106 0.779872 0.170198 255 255 255
-1.469320 -0.294133 4.871941 0.000000 -0.707107 0.707106 0.802456 0.000013 255 255 255
-0.339635 -0.294133 4.871941 0.000000 -0.707107 0.707106 0.802456 0.170110 255 255 255
-0.339635 0.294133 4.871941 0.000000 0.965926 0.258819 0.818939 0.427227 255 255 255
-1.469320 0.339635 4.702123 0.000000 0.965926 0.258819 0.844629 0.597329 255 255 255
-1.469320 0.294133 4.871941 0.000000 0.965926 0.258819 0.818939 0.597324 255 255 255
-0.339635 -0.000000 4.362488 0.000000 0.258820 -0.965926 0.683995 0.170193 255 255 255
-1.469320 0.169818 4.407990 0.000000 0.258820 -0.965926 0.709685 0.000101 255 255 255
-0.339635 0.169818 4.407990 0.000000 0.258820 -0.965926 0.709685 0.170198 255 255 255
-0.339635 0.169817 4.996256 0.000000 0.258820 0.965926 0.732269 0.170097 255 255 255
-1.469320 -0.000000 5.041759 0.000000 0.258820 0.965926 0.754182 0.000096 255 255 255
-0.339635 -0.000000 5.041759 0.000000 0.258820 0.965926 0.754182 0.170193 255 255 255
-0.339635 -0.294133 4.532305 0.000000 -0.707106 -0.707108 0.614479 0.101932 255 255 255
-1.469320 -0.169818 4.407990 0.000000 -0.707106 -0.707108 0.591895 0.272117 255 255 255
-0.339635 -0.169818 4.407990 0.000000 -0.707106 -0.707108 0.591895 0.102020 255 255 255
-0.339635 0.294133 4.532305 0.000000 0.965926 -0.258819 0.866541 0.427328 255 255 255
-1.469320 0.339635 4.702123 0.000000 0.965926 -0.258819 0.844629 0.597329 255 255 255
-0.339635 0.339635 4.702123 0.000000 0.965926 -0.258819 0.844629 0.427232 255 255 255
-0.339635 -0.294133 4.871941 0.000000 -0.965926 0.258819 0.662082 0.102033 255 255 255
-1.469320 -0.339635 4.702123 0.000000 -0.965926 0.258819 0.640169 0.272033 255 255 255
-0.339635 -0.339635 4.702123 0.000000 -0.965926 0.258819 0.640169 0.101936 255 255 255
-0.339635 0.169818 4.407990 0.000000 0.707106 -0.707108 0.709685 0.170198 255 255 255
-1.469320 0.294133 4.532305 0.000000 0.707106 -0.707108 0.732269 0.000013 255 255 255
-0.339635 0.294133 4.532305 0.000000 0.707106 -0.707108 0.732269 0.170110 255 255 255
-1.469320 -0.294133 4.532305 -0.281410 -0.678531 -0.678531 0.092771 0.000000 255 255 255
-1.728486 -0.130476 4.476133 -0.281410 -0.678531 -0.678531 0.078112 0.039174 255 255 255
-1.469320 -0.169818 4.407990 -0.281410 -0.678531 -0.678531 0.070187 0.000092 255 255 255
-1.469320 0.294133 4.532305 0.000000 0.000000 0.000000 0.000000 0.000000 255 255 255
-1.469320 0.169818 4.407990 0.000000 0.000000 0.000000 0.000000 0.000000 255 255 255
-1.469320 0.294133 4.532305 0.000000 0.000000 0.000000 0.000000 0.000000 255 255 255
-1.469320 -0.169818 4.996256 0.000000 0.000000 0.000000 0.000000 0.000000 255 255 255
-1.469320 -0.000000 5.041759 0.000000 0.000000 0.000000 0.000000 0.000000 255 255 255
-1.469320 -0.169818 4.996256 0.000000 0.000000 0.000000 0.000000 0.000000 255 255 255
-1.469320 -0.294133 4.532305 0.000000 0.000000 0.000000 0.000000 0.000000 255 255 255
-1.469320 -0.339635 4.702123 0.000000 0.000000 0.000000 0.000000 0.000000 255 255 255
-1.469320 -0.294133 4.532305 0.000000 0.000000 0.000000 0.000000 0.000000 255 255 255
-1.469320 0.169818 4.407990 0.000000 0.000000 0.000000 0.000000 0.000000 255 255 255
-1.469320 -0.000000 4.362488 0.000000 0.000000 0.000000 0.000000 0.000000 255 255 255
-1.469320 -0.000000 5.041759 0.000000 0.000000 0.000000 0.000000 0.000000 255 255 255
-1.469320 0.169817 4.996256 0.000000 0.000000 0.000000 0.000000 0.000000 255 255 255
-1.469320 -0.339635 4.702123 0.000000 0.000000 0.000000 0.000000 0.000000 255 255 255
-1.469320 -0.294133 4.871941 0.000000 0.000000 0.000000 0.000000 0.000000 255 255 255
-1.469320 -0.000000 4.362488 0.000000 0.000000 0.000000 0.000000 0.000000 255 255 255
-1.469320 -0.169818 4.407990 0.000000 0.000000 0.000000 0.000000 0.000000 255 255 255
-1.469320 0.169817 4.996256 0.000000 0.000000 0.000000 0.000000 0.000000 255 255 255
-1.469320 0.339635 4.702123 0.000000 0.000000 0.000000 0.000000 0.000000 255 255 255
-1.469320 -0.294133 4.871941 0.000000 0.000000 0.000000 0.000000 0.000000 255 255 255
-1.469320 -0.169818 4.407990 0.000000 0.000000 0.000000 0.000000 0.000000 255 255 255
-1.728486 -0.225990 4.571648 0.000000 -0.707107 -0.707107 0.095464 0.039103 255 255 255
-4.887795 -0.130476 4.476131 0.000000 -0.707107 -0.707107 0.078197 0.514872 255 255 255
-1.728486 -0.130476 4.476133 0.000000 -0.707107 -0.707107 0.078112 0.039174 255 255 255
-1.469320 0.339635 4.702123 -0.281409 0.926891 0.248360 0.258836 0.000000 255 255 255
-1.728486 0.225990 4.832599 -0.281409 0.926891 0.248360 0.235838 0.039103 255 255 255
-1.469320 0.294133 4.871941 -0.281409 0.926891 0.248360 0.233146 0.000000 255 255 255
-1.469320 0.169818 4.407990 -0.281409 0.678531 -0.678531 0.162958 0.000000 255 255 255
-1.728486 0.225990 4.571648 -0.281409 0.678531 -0.678531 0.148299 0.039173 255 255 255
-1.469320 0.294133 4.532305 -0.281409 0.678531 -0.678531 0.140374 0.000092 255 255 255
-1.469320 -0.000000 5.041759 -0.281408 -0.248360 0.926891 0.021913 0.840664 255 255 255
-1.728486 -0.130476 4.928113 -0.281408 -0.248360 0.926891 0.044910 0.801561 255 255 255
-1.469320 -0.169818 4.996256 -0.281408 -0.248360 0.926891 0.047603 0.840664 255 255 255
-1.469320 -0.339635 4.702123 -0.281409 -0.926891 -0.248359 0.118461 0.000000 255 255 255
-1.728486 -0.225990 4.571648 -0.281409 -0.926891 -0.248359 0.095464 0.039103 255 255 255
-1.469320 -0.294133 4.532305 -0.281409 -0.926891 -0.248359 0.092771 0.000000 255 255 255
-1.469320 -0.000000 4.362488 -0.281410 0.248358 -0.926891 0.188649 0.000000 255 255 255
-1.728486 0.130476 4.476133 -0.281410 0.248358 -0.926891 0.165651 0.039103 255 255 255
-1.469320 0.169818 4.407990 -0.281410 0.248358 -0.926891 0.162958 0.000000 255 255 255
-1.469320 0.169817 4.996256 -0.281409 0.248360 0.926891 0.000000 0.840572 255 255 255
-1.728486 -0.000000 4.963074 -0.281409 0.248360 0.926891 0.025172 0.801561 255 255 255
-1.469320 -0.000000 5.041759 -0.281409 0.248360 0.926891 0.021913 0.840664 255 255 255
-1.469320 -0.294133 4.871941 -0.281408 -0.926891 0.248360 0.140374 0.000092 255 255 255
-1.728486 -0.260951 4.702123 -0.281408 -0.926891 0.248360 0.115202 0.039103 255 255 255
-1.469320 -0.339635 4.702123 -0.281408 -0.926891 0.248360 0.118461 0.000000 255 255 255
-1.469320 -0.169818 4.407990 -0.281408 -0.248358 -0.926892 0.210561 0.000092 255 255 255
-1.728486 -0.000000 4.441172 -0.281408 -0.248358 -0.926892 0.185389 0.039103 255 255 255
-1.469320 -0.000000 4.362488 -0.281408 -0.248358 -0.926892 0.188649 0.000000 255 255 255
-1.469320 0.294133 4.871941 -0.281409 0.678530 0.678532 0.233146 0.000000 255 255 255
-1.728486 0.130475 4.928113 -0.281409 0.678530 0.678532 0.218485 0.039174 255 255 255
-1.469320 0.169817 4.996256 -0.281409 0.678530 0.678532 0.210561 0.000092 255 255 255
-1.469320 0.339635 4.702123 -0.281409 0.926891 -0.248360 0.258836 0.000000 255 255 255
-1.728486 0.225990 4.571648 -0.281409 0.926891 -0.248360 0.272412 0.039173 255 255 255
-1.728486 0.260951 4.702123 -0.281409 0.926891 -0.248360 0.255576 0.039103 255 255 255
-1.469320 -0.169818 4.996256 -0.281408 -0.678532 0.678531 0.047603 0.840664 255 255 255
-1.728486 -0.225990 4.832599 -0.281408 -0.678532 0.678531 0.062262 0.801491 255 255 255
-1.469320 -0.294133 4.871941 -0.281408 -0.678532 0.678531 0.070187 0.840572 255 255 255
-4.887795 -0.225990 4.832598 -0.000000 -0.707107 0.707107 0.062178 0.325792 255 255 255
-6.604025 -0.130476 4.928112 -0.000000 -0.707107 0.707107 0.044780 0.067450 255 255 255
-6.604025 -0.225990 4.832597 -0.000000 -0.707107 0.707107 0.062132 0.067379 255 255 255
-1.728486 0.260951 4.702123 -0.000000 0.965926 0.258820 0.255576 0.039103 255 255 255
-4.887795 0.225990 4.832598 -0.000000 0.965926 0.258820 0.235924 0.514801 255 255 255
-1.728486 0.225990 4.832599 -0.000000 0.965926 0.258820 0.235838 0.039103 255 255 255
-1.728486 0.130476 4.476133 0.000000 0.707107 -0.707107 0.165651 0.039103 255 255 255
-4.887795 0.225990 4.571646 0.000000 0.707107 -0.707107 0.148383 0.514872 255 255 255
-1.728486 0.225990 4.571648 0.000000 0.707107 -0.707107 0.148299 0.039173 255 255 255
-1.728486 -0.000000 4.963074 -0.000000 -0.258819 0.965926 0.025172 0.801561 255 255 255
-4.887795 -0.130476 4.928112 -0.000000 -0.258819 0.965926 0.044826 0.325863 255 255 255
-1.728486 -0.130476 4.928113 -0.000000 -0.258819 0.965926 0.044910 0.801561 255 255 255
-1.728486 -0.260951 4.702123 0.000000 -0.965926 -0.258820 0.115202 0.039103 255 255 255
-4.887795 -0.225990 4.571646 0.000000 -0.965926 -0.258820 0.095549 0.514801 255 255 255
-1.728486 -0.225990 4.571648 0.000000 -0.965926 -0.258820 0.095464 0.039103 255 255 255
-1.728486 -0.000000 4.441172 0.000000 0.258822 -0.965925 0.185389 0.039103 255 255 255
-4.887795 0.130476 4.476131 0.000000 0.258822 -0.965925 0.165735 0.514801 255 255 255
-1.728486 0.130476 4.476133 0.000000 0.258822 -0.965925 0.165651 0.039103 255 255 255
-1.728486 0.130475 4.928113 -0.000000 0.258818 0.965926 0.008336 0.801491 255 255 255
-4.887795 -0.000000 4.963073 -0.000000 0.258818 0.965926 0.025088 0.325863 255 255 255
-1.728486 -0.000000 4.963074 -0.000000 0.258818 0.965926 0.025172 0.801561 255 255 255
-1.728486 -0.225990 4.832599 -0.000000 -0.965926 0.258819 0.132039 0.039173 255 255 255
-4.887795 -0.260951 4.702122 -0.000000 -0.965926 0.258819 0.115288 0.514801 255 255 255
-1.728486 -0.260951 4.702123 -0.000000 -0.965926 0.258819 0.115202 0.039103 255 255 255
-1.728486 -0.130476 4.476133 0.000000 -0.258822 -0.965925 0.202225 0.039173 255 255 255
-4.887795 -0.000000 4.441171 0.000000 -0.258822 -0.965925 0.185474 0.514801 255 255 255
-1.728486 -0.000000 4.441172 0.000000 -0.258822 -0.965925 0.185389 0.039103 255 255 255
-1.728486 0.225990 4.832599 -0.000000 0.707107 0.707107 0.235838 0.039103 255 255 255
-4.887795 0.130475 4.928113 -0.000000 0.707107 0.707107 0.218571 0.514872 255 255 255
-1.728486 0.130475 4.928113 -0.000000 0.707107 0.707107 0.218485 0.039174 255 255 255
-1.728486 0.225990 4.571648 0.000000 0.965926 -0.258819 0.272412 0.039173 255 255 255
-4.887795 0.260951 4.702122 0.000000 0.965926 -0.258819 0.255662 0.514801 255 255 255
-1.728486 0.260951 4.702123 0.000000 0.965926 -0.258819 0.255576 0.039103 255 255 255
-1.728486 -0.130476 4.928113 -0.000000 -0.707107 0.707107 0.044910 0.801561 255 255 255
-1.728486 -0.225990 4.832599 -0.000000 -0.707107 0.707107 0.062262 0.801491 255 255 255
-6.604025 0.260951 4.702121 0.000000 0.965926 0.258819 0.255709 0.773214 255 255 255
-6.794762 0.225990 4.832597 0.000000 0.965926 0.258819 0.235975 0.801934 255 255 255
-6.604025 0.225990 4.832597 0.000000 0.965926 0.258819 0.235970 0.773214 255 255 255
-6.604025 -0.225990 4.571646 0.000000 -0.707107 -0.707107 0.095595 0.773215 255 255 255
-6.604025 -0.130476 4.476131 0.000000 -0.707107 -0.707107 0.078244 0.773286 255 255 255
-6.604025 0.225990 4.832597 -0.000000 -0.231228 0.972899 0.488111 0.583709 255 255 255
-5.845361 0.916744 4.996768 -0.000000 -0.231228 0.972899 0.591740 0.469517 255 255 255
-7.048206 0.916744 4.996768 -0.000000 -0.231228 0.972899 0.591740 0.650630 255 255 255
-4.887795 0.130476 4.476131 0.000000 0.707107 -0.707107 0.165735 0.514801 255 255 255
-6.604025 0.225990 4.571646 0.000000 0.707107 -0.707107 0.148429 0.773285 255 255 255
-4.887795 -0.000000 4.963073 0.586440 -0.209644 0.782392 0.025088 0.325863 255 255 255
-5.854805 -0.292136 5.609616 0.586440 -0.209644 0.782392 0.039168 0.180995 255 255 255
-4.887795 -0.130476 4.928112 0.586440 -0.209644 0.782392 0.044826 0.325863 255 255 255
-6.604025 -0.225990 4.571646 -0.844534 0.517256 0.138599 0.581546 0.650630 255 255 255
-7.053925 -0.941065 4.498926 -0.844534 0.517256 0.138599 0.564701 0.757546 255 255 255
-6.604025 -0.260951 4.702121 -0.844534 0.517256 0.138599 0.561801 0.650630 255 255 255
-6.604025 -0.000000 4.441170 -0.842177 -0.139556 0.520828 0.692021 0.757619 255 255 255
-7.053826 0.293288 3.792430 -0.842177 -0.139556 0.520828 0.675230 0.651895 255 255 255
-7.053826 0.200851 3.767662 -0.842177 -0.139556 0.520828 0.689219 0.651895 255 255 255
-4.887795 0.130475 4.928113 -0.000000 0.258818 0.965926 0.008252 0.325792 255 255 255
-6.604025 -0.000000 4.963073 -0.000000 0.258818 0.965926 0.025042 0.067450 255 255 255
-6.604025 -0.225990 4.832597 -0.000000 -0.965926 0.258819 0.132171 0.773285 255 255 255
-6.604025 -0.260951 4.702121 -0.000000 -0.965926 0.258819 0.115334 0.773215 255 255 255
-4.887795 -0.130476 4.476131 0.000000 -0.258818 -0.965926 0.202310 0.514872 255 255 255
-6.604025 -0.000000 4.441170 0.000000 -0.258818 -0.965926 0.185519 0.773214 255 255 255
-4.887795 -0.000000 4.441171 0.000000 -0.258818 -0.965926 0.185474 0.514801 255 255 255
-4.887795 0.225990 4.832598 -0.000000 0.707107 0.707107 0.235924 0.514801 255 255 255
-6.604025 0.130475 4.928112 -0.000000 0.707107 0.707107 0.218618 0.773285 255 255 255
-4.887795 0.225990 4.571646 0.000000 0.965926 -0.258819 0.272498 0.514872 255 255 255
-6.604025 0.260951 4.702121 0.000000 0.965926 -0.258819 0.255709 0.773214 255 255 255
-5.854805 -0.200750 5.634103 -0.000000 -0.258821 0.965925 0.025343 0.180995 255 255 255
-7.056865 -0.292136 5.609615 -0.000000 -0.258821 0.965925 0.039136 0.000000 255 255 255
-5.854805 -0.292136 5.609616 -0.000000 -0.258821 0.965925 0.039168 0.180995 255 255 255
-6.604025 -0.000000 4.963073 -0.000000 0.958046 0.286616 0.591740 0.393482 255 255 255
-5.854805 -0.200750 5.634103 -0.000000 0.958046 0.286616 0.694124 0.506290 255 255 255
-4.887795 -0.000000 4.963073 -0.000000 0.958046 0.286616 0.591740 0.651895 255 255 255
-6.604025 -0.130476 4.928112 0.000000 -0.973000 -0.230807 0.796354 0.393520 255 255 255
-5.854805 -0.292136 5.609616 0.000000 -0.973000 -0.230807 0.694124 0.506290 255 255 255
-7.056865 -0.292136 5.609615 0.000000 -0.973000 -0.230807 0.694124 0.325296 255 255 255
-6.604025 -0.000000 4.963073 -0.839669 0.140565 -0.524593 0.713870 0.757415 255 255 255
-7.056865 -0.292136 5.609615 -0.839669 0.140565 -0.524593 0.697006 0.651934 255 255 255
-7.056865 -0.200750 5.634102 -0.839669 0.140565 -0.524593 0.710835 0.651934 255 255 255
-5.852134 -0.916584 4.407561 0.000000 -0.965926 -0.258819 0.101239 0.659257 255 255 255
-7.053925 -0.941065 4.498926 0.000000 -0.965926 -0.258819 0.115094 0.840211 255 255 255
-7.053925 -0.916584 4.407560 0.000000 -0.965926 -0.258819 0.101272 0.840211 255 255 255
-4.887795 -0.260951 4.702122 0.592638 -0.778023 -0.208471 0.115288 0.514801 255 255 255
-5.852134 -0.916584 4.407561 0.592638 -0.778023 -0.208471 0.101239 0.659257 255 255 255
-4.887795 -0.225990 4.571646 0.592638 -0.778023 -0.208471 0.095549 0.514801 255 255 255
-6.604025 -0.225990 4.571646 0.000000 0.231165 -0.972915 0.488111 0.067782 255 255 255
-5.852134 -0.916584 4.407561 0.000000 0.231165 -0.972915 0.384507 0.180954 255 255 255
-7.053925 -0.916584 4.407560 0.000000 0.231165 -0.972915 0.384507 0.000000 255 255 255
-6.604025 -0.260951 4.702121 -0.000000 -0.286263 0.958151 0.280748 0.067743 255 255 255
-5.852134 -0.941065 4.498927 -0.000000 -0.286263 0.958151 0.384507 0.180954 255 255 255
-4.887795 -0.260951 4.702122 -0.000000 -0.286263 0.958151 0.280748 0.326157 255 255 255
-5.837934 0.200851 3.767662 0.000000 0.258817 -0.965926 0.185305 0.657127 255 255 255
-7.053826 0.293288 3.792430 0.000000 0.258817 -0.965926 0.171354 0.840204 255 255 255
-5.837934 0.293288 3.792430 0.000000 0.258817 -0.965926 0.171321 0.657127 255 255 255
-4.887795 -0.000000 4.441171 0.594537 0.208108 -0.776670 0.185474 0.514801 255 255 255
-5.837934 0.293288 3.792430 0.594537 0.208108 -0.776670 0.171321 0.657127 255 255 255
-4.887795 0.130476 4.476131 0.594537 0.208108 -0.776670 0.165735 0.514801 255 255 255
-6.604025 -0.000000 4.441170 0.000000 -0.958296 -0.285779 0.383484 0.584570 255 255 255
-5.837934 0.200851 3.767662 0.000000 -0.958296 -0.285779 0.280748 0.469221 255 255 255
-4.887795 -0.000000 4.441171 0.000000 -0.958296 -0.285779 0.383484 0.326157 255 255 255
-6.604025 0.130476 4.476131 -0.000000 0.972798 0.231656 0.487091 0.393962 255 255 255
-5.837934 0.293288 3.792430 -0.000000 0.972798 0.231656 0.384507 0.509273 255 255 255
-7.053826 0.293288 3.792430 -0.000000 0.972798 0.231656 0.384507 0.326196 255 255 255
-5.845361 0.941247 4.905323 -0.000000 0.965925 0.258820 0.255452 0.658237 255 255 255
-7.048206 0.916744 4.996768 -0.000000 0.965925 0.258820 0.241651 0.839350 255 255 255
-5.845361 0.916744 4.996768 -0.000000 0.965925 0.258820 0.241618 0.658237 255 255 255
-6.604025 0.260951 4.702121 -0.847669 -0.512448 -0.137311 0.672276 0.758681 255 255 255
-7.048206 0.916744 4.996768 -0.847669 -0.512448 -0.137311 0.655426 0.651895 255 255 255
-7.048206 0.941247 4.905323 -0.847669 -0.512448 -0.137311 0.669264 0.651895 255 255 255
-4.887795 0.225990 4.832598 0.595444 0.776022 0.207936 0.235924 0.514801 255 255 255
-5.845361 0.941247 4.905323 0.595444 0.776022 0.207936 0.255452 0.658237 255 255 255
-5.845361 0.916744 4.996768 0.595444 0.776022 0.207936 0.241618 0.658237 255 255 255
-6.604025 0.260951 4.702121 0.000000 0.286201 -0.958170 0.488111 0.066882 255 255 255
-5.845361 0.941247 4.905323 0.000000 0.286201 -0.958170 0.591895 0.181113 255 255 255
-4.887795 0.260951 4.702122 0.000000 0.286201 -0.958170 0.488111 0.325296 255 255 255
-6.794762 -0.225990 4.832597 -0.799920 0.579659 -0.155319 0.497983 0.716368 255 255 255
-6.761659 -0.215270 4.702121 -0.799920 0.579659 -0.155319 0.516816 0.719888 255 255 255
-6.794762 -0.260951 4.702121 -0.799920 0.579659 -0.155319 0.515083 0.726538 255 255 255
-6.604025 0.130476 4.476131 0.000000 0.707107 -0.707107 0.165781 0.773214 255 255 255
-6.794762 0.225990 4.571646 0.000000 0.707107 -0.707107 0.148434 0.802005 255 255 255
-6.604025 -0.000000 4.963073 0.000000 -0.258822 0.965925 0.025042 0.067450 255 255 255
-6.794762 -0.130476 4.928112 0.000000 -0.258822 0.965925 0.044775 0.038730 255 255 255
-6.604025 -0.130476 4.928112 0.000000 -0.258822 0.965925 0.044780 0.067450 255 255 255
-6.604025 -0.260951 4.702121 -0.000000 -0.965926 -0.258820 0.115334 0.773215 255 255 255
-6.794762 -0.225990 4.571646 -0.000000 -0.965926 -0.258820 0.095601 0.801934 255 255 255
-6.604025 -0.225990 4.571646 -0.000000 -0.965926 -0.258820 0.095595 0.773215 255 255 255
-6.604025 -0.000000 4.441170 0.000000 0.258818 -0.965926 0.185519 0.773214 255 255 255
-6.794762 0.130476 4.476131 0.000000 0.258818 -0.965926 0.165786 0.801934 255 255 255
-6.604025 0.130476 4.476131 0.000000 0.258818 -0.965926 0.165781 0.773214 255 255 255
-6.604025 0.130475 4.928112 0.000000 0.258818 0.965926 0.008206 0.067379 255 255 255
-6.794762 -0.000000 4.963073 0.000000 0.258818 0.965926 0.025037 0.038730 255 255 255
-6.794762 -0.260951 4.702121 0.000000 -0.965926 0.258819 0.115339 0.801934 255 255 255
-6.604025 -0.130476 4.476131 -0.000000 -0.258818 -0.965926 0.202355 0.773285 255 255 255
-6.794762 -0.000000 4.441170 -0.000000 -0.258818 -0.965926 0.185525 0.801934 255 255 255
-6.604025 0.225990 4.832597 0.000000 0.707107 0.707107 0.235970 0.773214 255 255 255
-6.794762 0.130475 4.928112 0.000000 0.707107 0.707107 0.218623 0.802005 255 255 255
-6.604025 0.225990 4.571646 0.000000 0.965926 -0.258819 0.272544 0.773285 255 255 255
-6.794762 0.260951 4.702121 0.000000 0.965926 -0.258819 0.255714 0.801934 255 255 255
-6.794762 -0.225990 4.832597 0.000000 -0.707107 0.707107 0.062127 0.038659 255 255 255
-6.794762 -0.130476 4.476131 -0.000000 -0.707107 -0.707107 0.078249 0.802005 255 255 255
-6.761659 -0.215270 4.702121 -0.000000 0.965926 -0.258819 0.986112 0.325299 255 255 255
-4.088421 -0.186429 4.809754 -0.000000 0.965926 -0.258819 1.000000 0.727870 255 255 255
-4.088421 -0.215270 4.702119 -0.000000 0.965926 -0.258819 0.986112 0.727809 255 255 255
-6.794762 -0.130476 4.476131 -0.799919 0.155319 0.579660 0.551928 0.716368 255 255 255
-6.761659 -0.000000 4.486852 -0.799919 0.155319 0.579660 0.555355 0.696968 255 255 255
-6.794762 -0.000000 4.441170 -0.799919 0.155319 0.579660 0.561801 0.698754 255 255 255
-6.794762 0.130475 4.928112 -0.799921 -0.424338 -0.424339 0.497983 0.660800 255 255 255
-6.761659 0.186429 4.809756 -0.799921 -0.424338 -0.424339 0.516816 0.657269 255 255 255
-6.761659 0.107635 4.888550 -0.799921 -0.424338 -0.424339 0.502709 0.665658 255 255 255
-6.794762 0.225990 4.571646 -0.799920 -0.579659 0.155319 0.551928 0.660800 255 255 255
-6.761659 0.215270 4.702121 -0.799920 -0.579659 0.155319 0.533104 0.657269 255 255 255
-6.794762 0.260951 4.702121 -0.799920 -0.579659 0.155319 0.534828 0.650630 255 255 255
-6.794762 -0.225990 4.832597 -0.799918 0.424341 -0.424341 0.497983 0.716368 255 255 255
-6.761659 -0.107635 4.888550 -0.799918 0.424341 -0.424341 0.494565 0.696968 255 255 255
-6.761659 -0.186429 4.809756 -0.799918 0.424341 -0.424341 0.502709 0.711498 255 255 255
-6.794762 -0.225990 4.571646 -0.799919 0.424340 0.424340 0.534828 0.726538 255 255 255
-6.761659 -0.107635 4.515692 -0.799919 0.424340 0.424340 0.547211 0.711498 255 255 255
-6.794762 -0.130476 4.476131 -0.799919 0.424340 0.424340 0.551928 0.716368 255 255 255
-6.794762 0.260951 4.702121 -0.799920 -0.579658 -0.155319 0.534828 0.650630 255 255 255
-6.761659 0.186429 4.809756 -0.799920 -0.579658 -0.155319 0.516816 0.657269 255 255 255
-6.794762 0.225990 4.832597 -0.799920 -0.579658 -0.155319 0.515083 0.650630 255 255 255
-6.794762 0.130476 4.476131 -0.799921 -0.424339 0.424339 0.561801 0.678414 255 255 255
-6.761659 0.186429 4.594487 -0.799921 -0.424339 0.424339 0.547211 0.665658 255 255 255
-6.794762 0.225990 4.571646 -0.799921 -0.424339 0.424339 0.551928 0.660800 255 255 255
-6.794762 -0.000000 4.963073 -0.799919 0.155321 -0.579659 0.488111 0.678414 255 255 255
-6.761659 -0.107635 4.888550 -0.799919 0.155321 -0.579659 0.494565 0.696968 255 255 255
-6.794762 -0.130476 4.928112 -0.799919 0.155321 -0.579659 0.488111 0.698754 255 255 255
-6.794762 -0.260951 4.702121 -0.799920 0.579658 0.155319 0.515083 0.726538 255 255 255
-6.761659 -0.186429 4.594487 -0.799920 0.579658 0.155319 0.533104 0.719888 255 255 255
-6.794762 -0.225990 4.571646 -0.799920 0.579658 0.155319 0.534828 0.726538 255 255 255
-6.794762 -0.000000 4.441170 -0.799919 -0.155319 0.579660 0.561801 0.698754 255 255 255
-6.761659 0.107635 4.515692 -0.799919 -0.155319 0.579660 0.555355 0.680189 255 255 255
-6.794762 0.130476 4.476131 -0.799919 -0.155319 0.579660 0.561801 0.678414 255 255 255
-6.794762 0.130475 4.928112 -0.799922 -0.155318 -0.579656 0.497983 0.660800 255 255 255
-6.761659 -0.000000 4.917391 -0.799922 -0.155318 -0.579656 0.494565 0.680189 255 255 255
-6.794762 -0.000000 4.963073 -0.799922 -0.155318 -0.579656 0.488111 0.678414 255 255 255
-4.088421 -0.000000 4.486850 -1.000000 -0.000000 -0.000000 0.599885 0.660285 255 255 255
-4.088421 -0.186429 4.809754 -1.000000 -0.000000 -0.000000 0.652531 0.674816 255 255 255
-4.088421 0.186429 4.809754 -1.000000 -0.000000 -0.000000 0.613991 0.714514 255 255 255
-6.761659 -0.107635 4.515692 0.000001 0.258818 0.965926 0.911027 0.325360 255 255 255
-4.088421 -0.000000 4.486850 0.000001 0.258818 0.965926 0.897139 0.727809 255 255 255
-6.761659 -0.000000 4.486852 0.000001 0.258818 0.965926 0.897138 0.325299 255 255 255
-6.761659 0.186429 4.809756 -0.000001 -0.707106 -0.707108 0.925341 0.325296 255 255 255
-4.088421 0.107635 4.888548 -0.000001 -0.707106 -0.707108 0.911027 0.727862 255 255 255
-6.761659 0.107635 4.888550 -0.000001 -0.707106 -0.707108 0.911027 0.325352 255 255 255
-6.761659 0.186429 4.594487 0.000000 -0.965926 0.258820 0.955514 0.325360 255 255 255
-4.088421 0.215270 4.702119 0.000000 -0.965926 0.258820 0.941625 0.727809 255 255 255
-6.761659 0.215270 4.702121 0.000000 -0.965926 0.258820 0.941625 0.325299 255 255 255
-6.761659 -0.186429 4.809756 -0.000001 0.707106 -0.707107 0.796354 0.597481 255 255 255
-4.088421 -0.107635 4.888548 -0.000001 0.707106 -0.707107 0.810668 0.999936 255 255 255
-4.088421 -0.186429 4.809754 -0.000001 0.707106 -0.707107 0.796354 0.999992 255 255 255
-6.761659 -0.107635 4.515692 0.000001 0.707108 0.707105 0.955514 0.325351 255 255 255
-4.088421 -0.186429 4.594485 0.000001 0.707108 0.707105 0.969829 0.727806 255 255 255
-4.088421 -0.107635 4.515690 0.000001 0.707108 0.707105 0.955514 0.727862 255 255 255
-6.761659 0.215270 4.702121 -0.000000 -0.965926 -0.258819 0.941625 0.325299 255 255 255
-4.088421 0.186429 4.809754 -0.000000 -0.965926 -0.258819 0.925341 0.727806 255 255 255
-6.761659 0.186429 4.809756 -0.000000 -0.965926 -0.258819 0.925341 0.325296 255 255 255
-6.761659 0.107635 4.515692 0.000001 -0.707108 0.707105 0.880855 0.325296 255 255 255
-4.088421 0.186429 4.594485 0.000001 -0.707108 0.707105 0.866541 0.727862 255 255 255
-6.761659 0.186429 4.594487 0.000001 -0.707108 0.707105 0.866541 0.325352 255 255 255
-6.761659 -0.000000 4.917391 -0.000001 0.258818 -0.965926 0.826951 0.597428 255 255 255
-4.088421 -0.107635 4.888548 -0.000001 0.258818 -0.965926 0.810668 0.999936 255 255 255
-6.761659 -0.107635 4.888550 -0.000001 0.258818 -0.965926 0.810668 0.597425 255 255 255
-6.761659 -0.186429 4.594487 0.000000 0.965926 0.258820 0.969829 0.325296 255 255 255
-4.088421 -0.215270 4.702119 0.000000 0.965926 0.258820 0.986112 0.727809 255 255 255
-4.088421 -0.186429 4.594485 0.000000 0.965926 0.258820 0.969829 0.727806 255 255 255
-6.761659 -0.000000 4.486852 0.000001 -0.258818 0.965926 0.897138 0.325299 255 255 255
-4.088421 0.107635 4.515690 0.000001 -0.258818 0.965926 0.880855 0.727806 255 255 255
-6.761659 0.107635 4.515692 0.000001 -0.258818 0.965926 0.880855 0.325296 255 255 255
-6.761659 0.107635 4.888550 -0.000001 -0.258818 -0.965926 0.840840 0.597489 255 255 255
-4.088421 -0.000000 4.917389 -0.000001 -0.258818 -0.965926 0.826952 0.999939 255 255 255
-6.761659 -0.000000 4.917391 -0.000001 -0.258818 -0.965926 0.826951 0.597428 255 255 255
-0.339635 -0.000000 5.041759 0.000000 -0.258820 0.965926 0.754182 0.170193 255 255 255
-0.339635 -0.169818 4.407990 0.000000 -0.258817 -0.965926 0.662082 0.170097 255 255 255
-1.469320 -0.169818 4.407990 0.000000 -0.258817 -0.965926 0.662082 0.000000 255 255 255
-1.469320 -0.000000 4.362488 0.000000 -0.258817 -0.965926 0.683995 0.000096 255 255 255
-1.469320 0.294133 4.871941 -0.000000 0.707106 0.707108 0.818939 0.597324 255 255 255
-1.469320 -0.339635 4.702123 0.000000 -0.965926 -0.258819 0.640169 0.272033 255 255 255
-1.469320 -0.169818 4.996256 0.000000 -0.707107 0.707106 0.779872 0.000101 255 255 255
-0.339635 0.339635 4.702123 -0.000000 0.965926 0.258819 0.844629 0.427232 255 255 255
-0.339635 -0.000000 4.362488 -0.000000 0.258817 -0.965926 0.683995 0.170193 255 255 255
-1.469320 -0.000000 4.362488 -0.000000 0.258817 -0.965926 0.683995 0.000096 255 255 255
-1.469320 0.169818 4.407990 -0.000000 0.258817 -0.965926 0.709685 0.000101 255 255 255
-1.469320 0.169817 4.996256 -0.000000 0.258820 0.965926 0.732269 0.000000 255 255 255
-0.339635 -0.294133 4.532305 0.000000 -0.707107 -0.707106 0.614479 0.101932 255 255 255
-1.469320 -0.294133 4.532305 0.000000 -0.707107 -0.707106 0.614479 0.272029 255 255 255
-1.469320 -0.169818 4.407990 0.000000 -0.707107 -0.707106 0.591895 0.272117 255 255 255
-1.469320 0.294133 4.532305 0.000000 0.965926 -0.258819 0.866541 0.597425 255 255 255
-1.469320 -0.294133 4.871941 0.000000 -0.965926 0.258819 0.662082 0.272130 255 255 255
-0.339635 0.169818 4.407990 0.000000 0.707107 -0.707106 0.709685 0.170198 255 255 255
-1.469320 0.169818 4.407990 0.000000 0.707107 -0.707106 0.709685 0.000101 255 255 255
-1.469320 0.294133 4.532305 0.000000 0.707107 -0.707106 0.732269 0.000013 255 255 255
-1.469320 -0.294133 4.532305 -0.281409 -0.678531 -0.678531 0.092771 0.000000 255 255 255
-1.728486 -0.225990 4.571648 -0.281409 -0.678531 -0.678531 0.095464 0.039103 255 255 255
-1.728486 -0.130476 4.476133 -0.281409 -0.678531 -0.678531 0.078112 0.039174 255 255 255
-4.887795 -0.225990 4.571646 0.000000 -0.707107 -0.707107 0.095549 0.514801 255 255 255
-1.728486 0.260951 4.702123 -0.281409 0.926891 0.248360 0.255576 0.039103 255 255 255
-1.469320 0.169818 4.407990 -0.281410 0.678531 -0.678531 0.162958 0.000000 255 255 255
-1.728486 0.130476 4.476133 -0.281410 0.678531 -0.678531 0.165651 0.039103 255 255 255
-1.728486 0.225990 4.571648 -0.281410 0.678531 -0.678531 0.148299 0.039173 255 255 255
-1.469320 -0.000000 5.041759 -0.281409 -0.248359 0.926891 0.021913 0.840664 255 255 255
-1.728486 -0.000000 4.963074 -0.281409 -0.248359 0.926891 0.025172 0.801561 255 255 255
-1.728486 -0.130476 4.928113 -0.281409 -0.248359 0.926891 0.044910 0.801561 255 255 255
-1.469320 -0.339635 4.702123 -0.281408 -0.926891 -0.248360 0.118461 0.000000 255 255 255
-1.728486 -0.260951 4.702123 -0.281408 -0.926891 -0.248360 0.115202 0.039103 255 255 255
-1.728486 -0.225990 4.571648 -0.281408 -0.926891 -0.248360 0.095464 0.039103 255 255 255
-1.469320 -0.000000 4.362488 -0.281407 0.248362 -0.926890 0.188649 0.000000 255 255 255
-1.728486 -0.000000 4.441172 -0.281407 0.248362 -0.926890 0.185389 0.039103 255 255 255
-1.728486 0.130476 4.476133 -0.281407 0.248362 -0.926890 0.165651 0.039103 255 255 255
-1.469320 0.169817 4.996256 -0.281408 0.248359 0.926891 0.000000 0.840572 255 255 255
-1.728486 0.130475 4.928113 -0.281408 0.248359 0.926891 0.008336 0.801491 255 255 255
-1.728486 -0.000000 4.963074 -0.281408 0.248359 0.926891 0.025172 0.801561 255 255 255
-1.728486 -0.225990 4.832599 -0.281408 -0.926891 0.248360 0.132039 0.039173 255 255 255
-1.469320 -0.169818 4.407990 -0.281410 -0.248362 -0.926890 0.210561 0.000092 255 255 255
-1.728486 -0.130476 4.476133 -0.281410 -0.248362 -0.926890 0.202225 0.039173 255 255 255
-1.728486 -0.000000 4.441172 -0.281410 -0.248362 -0.926890 0.185389 0.039103 255 255 255
-1.469320 0.294133 4.871941 -0.281409 0.678531 0.678531 0.233146 0.000000 255 255 255
-1.728486 0.225990 4.832599 -0.281409 0.678531 0.678531 0.235838 0.039103 255 255 255
-1.728486 0.130475 4.928113 -0.281409 0.678531 0.678531 0.218485 0.039174 255 255 255
-1.469320 0.339635 4.702123 -0.281409 0.926891 -0.248359 0.258836 0.000000 255 255 255
-1.469320 0.294133 4.532305 -0.281409 0.926891 -0.248359 0.280748 0.000092 255 255 255
-1.728486 0.225990 4.571648 -0.281409 0.926891 -0.248359 0.272412 0.039173 255 255 255
-1.728486 -0.130476 4.928113 -0.281408 -0.678532 0.678531 0.044910 0.801561 255 255 255
-4.887795 -0.225990 4.832598 -0.000000 -0.707105 0.707108 0.062178 0.325792 255 255 255
-4.887795 -0.130476 4.928112 -0.000000 -0.707105 0.707108 0.044826 0.325863 255 255 255
-6.604025 -0.130476 4.928112 -0.000000 -0.707105 0.707108 0.044780 0.067450 255 255 255
-1.728486 0.260951 4.702123 -0.000000 0.965926 0.258819 0.255576 0.039103 255 255 255
-4.887795 0.260951 4.702122 -0.000000 0.965926 0.258819 0.255662 0.514801 255 255 255
-4.887795 0.225990 4.832598 -0.000000 0.965926 0.258819 0.235924 0.514801 255 255 255
-1.728486 -0.000000 4.963074 -0.000000 -0.258822 0.965925 0.025172 0.801561 255 255 255
-4.887795 -0.000000 4.963073 -0.000000 -0.258822 0.965925 0.025088 0.325863 255 255 255
-4.887795 -0.130476 4.928112 -0.000000 -0.258822 0.965925 0.044826 0.325863 255 255 255
-1.728486 -0.260951 4.702123 0.000000 -0.965926 -0.258819 0.115202 0.039103 255 255 255
-4.887795 -0.260951 4.702122 0.000000 -0.965926 -0.258819 0.115288 0.514801 255 255 255
-4.887795 -0.225990 4.571646 0.000000 -0.965926 -0.258819 0.095549 0.514801 255 255 255
-1.728486 -0.000000 4.441172 0.000000 0.258818 -0.965926 0.185389 0.039103 255 255 255
-4.887795 -0.000000 4.441171 0.000000 0.258818 -0.965926 0.185474 0.514801 255 255 255
-4.887795 0.130476 4.476131 0.000000 0.258818 -0.965926 0.165735 0.514801 255 255 255
-1.728486 0.130475 4.928113 -0.000000 0.258819 0.965926 0.008336 0.801491 255 255 255
-4.887795 0.130475 4.928113 -0.000000 0.258819 0.965926 0.008252 0.325792 255 255 255
-4.887795 -0.000000 4.963073 -0.000000 0.258819 0.965926 0.025088 0.325863 255 255 255
-1.728486 -0.225990 4.832599 -0.000000 -0.965926 0.258818 0.132039 0.039173 255 255 255
-4.887795 -0.225990 4.832598 -0.000000 -0.965926 0.258818 0.132124 0.514872 255 255 255
-4.887795 -0.260951 4.702122 -0.000000 -0.965926 0.258818 0.115288 0.514801 255 255 255
-1.728486 -0.130476 4.476133 0.000000 -0.258818 -0.965926 0.202225 0.039173 255 255 255
-1.728486 -0.130476 4.928113 -0.000000 -0.707105 0.707108 0.044910 0.801561 255 255 255
-6.794762 0.260951 4.702121 -0.000000 0.965926 0.258819 0.255714 0.801934 255 255 255
-4.887795 0.225990 4.832598 -0.000000 -0.231228 0.972899 0.488111 0.325296 255 255 255
-4.887795 -0.000000 4.963073 0.586441 -0.209643 0.782392 0.025088 0.325863 255 255 255
-5.854805 -0.200750 5.634103 0.586441 -0.209643 0.782392 0.025343 0.180995 255 255 255
-5.854805 -0.292136 5.609616 0.586441 -0.209643 0.782392 0.039168 0.180995 255 255 255
-6.604025 -0.225990 4.571646 -0.844534 0.517256 0.138598 0.581546 0.650630 255 255 255
-7.053925 -0.916584 4.407560 -0.844534 0.517256 0.138598 0.578528 0.757546 255 255 255
-7.053925 -0.941065 4.498926 -0.844534 0.517256 0.138598 0.564701 0.757546 255 255 255
-6.604025 -0.000000 4.441170 -0.842177 -0.139555 0.520828 0.692021 0.757619 255 255 255
-6.604025 0.130476 4.476131 -0.842177 -0.139555 0.520828 0.672276 0.757619 255 255 255
-7.053826 0.293288 3.792430 -0.842177 -0.139555 0.520828 0.675230 0.651895 255 255 255
-6.604025 -0.225990 4.832597 -0.000000 -0.965926 0.258818 0.132171 0.773285 255 255 255
-7.056865 -0.200750 5.634102 -0.000000 -0.258821 0.965925 0.025311 0.000000 255 255 255
-7.056865 -0.200750 5.634102 -0.000000 0.958046 0.286616 0.694124 0.325296 255 255 255
-4.887795 -0.130476 4.928112 0.000000 -0.973000 -0.230807 0.796354 0.651934 255 255 255
-6.604025 -0.000000 4.963073 -0.839669 0.140566 -0.524592 0.713870 0.757415 255 255 255
-6.604025 -0.130476 4.928112 -0.839669 0.140566 -0.524592 0.694124 0.757415 255 255 255
-7.056865 -0.292136 5.609615 -0.839669 0.140566 -0.524592 0.697006 0.651934 255 255 255
-5.852134 -0.941065 4.498927 0.000000 -0.965926 -0.258819 0.115061 0.659257 255 255 255
-4.887795 -0.260951 4.702122 0.592638 -0.778023 -0.208470 0.115288 0.514801 255 255 255
-5.852134 -0.941065 4.498927 0.592638 -0.778023 -0.208470 0.115061 0.659257 255 255 255
-5.852134 -0.916584 4.407561 0.592638 -0.778023 -0.208470 0.101239 0.659257 255 255 255
-4.887795 -0.225990 4.571646 0.000000 0.231165 -0.972915 0.488111 0.326196 255 255 255
-7.053925 -0.941065 4.498926 -0.000000 -0.286263 0.958151 0.384507 0.000000 255 255 255
-5.837934 0.200851 3.767662 0.000000 0.258819 -0.965926 0.185305 0.657127 255 255 255
-7.053826 0.200851 3.767662 0.000000 0.258819 -0.965926 0.185338 0.840204 255 255 255
-7.053826 0.293288 3.792430 0.000000 0.258819 -0.965926 0.171354 0.840204 255 255 255
-4.887795 -0.000000 4.441171 0.594537 0.208107 -0.776671 0.185474 0.514801 255 255 255
-5.837934 0.200851 3.767662 0.594537 0.208107 -0.776671 0.185305 0.657127 255 255 255
-5.837934 0.293288 3.792430 0.594537 0.208107 -0.776671 0.171321 0.657127 255 255 255
-6.604025 -0.000000 4.441170 0.000000 -0.958296 -0.285778 0.383484 0.584570 255 255 255
-7.053826 0.200851 3.767662 0.000000 -0.958296 -0.285778 0.280748 0.652299 255 255 255
-5.837934 0.200851 3.767662 0.000000 -0.958296 -0.285778 0.280748 0.469221 255 255 255
-4.887795 0.130476 4.476131 -0.000000 0.972798 0.231656 0.487091 0.652376 255 255 255
-7.048206 0.941247 4.905323 -0.000000 0.965925 0.258820 0.255485 0.839350 255 255 255
-6.604025 0.260951 4.702121 -0.847669 -0.512449 -0.137310 0.672276 0.758681 255 255 255
-6.604025 0.225990 4.832597 -0.847669 -0.512449 -0.137310 0.652531 0.758681 255 255 255
-7.048206 0.916744 4.996768 -0.847669 -0.512449 -0.137310 0.655426 0.651895 255 255 255
-4.887795 0.225990 4.832598 0.595444 0.776022 0.207934 0.235924 0.514801 255 255 255
-4.887795 0.260951 4.702122 0.595444 0.776022 0.207934 0.255662 0.514801 255 255 255
-5.845361 0.941247 4.905323 0.595444 0.776022 0.207934 0.255452 0.658237 255 255 255
-7.048206 0.941247 4.905323 0.000000 0.286201 -0.958170 0.591895 0.000000 255 255 255
-6.794762 -0.225990 4.832597 -0.799919 0.579659 -0.155319 0.497983 0.716368 255 255 255
-6.761659 -0.186429 4.809756 -0.799919 0.579659 -0.155319 0.502709 0.711498 255 255 255
-6.761659 -0.215270 4.702121 -0.799919 0.579659 -0.155319 0.516816 0.719888 255 255 255
-6.794762 0.130476 4.476131 0.000000 0.707107 -0.707107 0.165786 0.801934 255 255 255
-6.794762 -0.000000 4.963073 0.000000 -0.258822 0.965925 0.025037 0.038730 255 255 255
-6.794762 -0.260951 4.702121 0.000000 -0.965926 -0.258820 0.115339 0.801934 255 255 255
-6.794762 -0.000000 4.441170 0.000000 0.258818 -0.965926 0.185525 0.801934 255 255 255
-6.794762 0.130475 4.928112 -0.000000 0.258818 0.965926 0.008201 0.038659 255 255 255
-6.794762 -0.225990 4.832597 0.000000 -0.965926 0.258819 0.132176 0.802005 255 255 255
-6.794762 -0.130476 4.476131 0.000000 -0.258818 -0.965926 0.202361 0.802005 255 255 255
-6.794762 0.225990 4.832597 -0.000000 0.707107 0.707107 0.235975 0.801934 255 255 255
-6.794762 0.225990 4.571646 0.000000 0.965926 -0.258819 0.272549 0.802004 255 255 255
-6.794762 -0.130476 4.928112 0.000000 -0.707107 0.707107 0.044775 0.038730 255 255 255
-6.794762 -0.225990 4.571646 0.000000 -0.707107 -0.707107 0.095601 0.801934 255 255 255
-6.761659 -0.186429 4.809756 -0.000000 0.965926 -0.258819 1.000000 0.325360 255 255 255
-6.761659 -0.107635 4.515692 -0.799919 0.155319 0.579660 0.547211 0.711498 255 255 255
-6.794762 0.130475 4.928112 -0.799921 -0.424339 -0.424339 0.497983 0.660800 255 255 255
-6.794762 0.225990 4.832597 -0.799921 -0.424339 -0.424339 0.515083 0.650630 255 255 255
-6.761659 0.186429 4.809756 -0.799921 -0.424339 -0.424339 0.516816 0.657269 255 255 255
-6.794762 0.225990 4.571646 -0.799920 -0.579658 0.155319 0.551928 0.660800 255 255 255
-6.761659 0.186429 4.594487 -0.799920 -0.579658 0.155319 0.547211 0.665658 255 255 255
-6.761659 0.215270 4.702121 -0.799920 -0.579658 0.155319 0.533104 0.657269 255 255 255
-6.794762 -0.225990 4.832597 -0.799919 0.424340 -0.424340 0.497983 0.716368 255 255 255
-6.794762 -0.130476 4.928112 -0.799919 0.424340 -0.424340 0.488111 0.698754 255 255 255
-6.761659 -0.107635 4.888550 -0.799919 0.424340 -0.424340 0.494565 0.696968 255 255 255
-6.794762 -0.225990 4.571646 -0.799921 0.424340 0.424338 0.534828 0.726538 255 255 255
-6.761659 -0.186429 4.594487 -0.799921 0.424340 0.424338 0.533104 0.719888 255 255 255
-6.761659 -0.107635 4.515692 -0.799921 0.424340 0.424338 0.547211 0.711498 255 255 255
-6.794762 0.260951 4.702121 -0.799920 -0.579659 -0.155319 0.534828 0.650630 255 255 255
-6.761659 0.215270 4.702121 -0.799920 -0.579659 -0.155319 0.533104 0.657269 255 255 255
-6.761659 0.186429 4.809756 -0.799920 -0.579659 -0.155319 0.516816 0.657269 255 255 255
-6.794762 0.130476 4.476131 -0.799919 -0.424341 0.424340 0.561801 0.678414 255 255 255
-6.761659 0.107635 4.515692 -0.799919 -0.424341 0.424340 0.555355 0.680189 255 255 255
-6.761659 0.186429 4.594487 -0.799919 -0.424341 0.424340 0.547211 0.665658 255 255 255
-6.794762 -0.000000 4.963073 -0.799922 0.155318 -0.579656 0.488111 0.678414 255 255 255
-6.761659 -0.000000 4.917391 -0.799922 0.155318 -0.579656 0.494565 0.680189 255 255 255
-6.761659 -0.107635 4.888550 -0.799922 0.155318 -0.579656 0.494565 0.696968 255 255 255
-6.794762 -0.260951 4.702121 -0.799920 0.579659 0.155320 0.515083 0.726538 255 255 255
-6.761659 -0.215270 4.702121 -0.799920 0.579659 0.155320 0.516816 0.719888 255 255 255
-6.761659 -0.186429 4.594487 -0.799920 0.579659 0.155320 0.533104 0.719888 255 255 255
-6.761659 -0.000000 4.486852 -0.799919 -0.155319 0.579660 0.555355 0.696968 255 255 255
-6.761659 0.107635 4.888550 -0.799922 -0.155318 -0.579656 0.502709 0.665658 255 255 255
-4.088421 0.215270 4.702119 -1.000000 0.000000 0.000000 0.599885 0.706125 255 255 255
-4.088421 0.186429 4.594485 -1.000000 0.000000 0.000000 0.591740 0.691594 255 255 255
-4.088421 0.107635 4.515690 -1.000000 0.000000 0.000000 0.591740 0.674816 255 255 255
-4.088421 -0.107635 4.515690 -1.000000 0.000000 0.000000 0.613991 0.651895 255 255 255
-4.088421 -0.186429 4.594485 -1.000000 0.000000 0.000000 0.630280 0.651895 255 255 255
-4.088421 -0.215270 4.702119 -1.000000 0.000000 -0.000000 0.644386 0.660285 255 255 255
-4.088421 -0.107635 4.888548 -1.000000 0.000000 0.000000 0.652531 0.691594 255 255 255
-4.088421 -0.000000 4.917389 -1.000000 0.000000 0.000000 0.644386 0.706125 255 255 255
-4.088421 0.107635 4.888548 -1.000000 0.000000 0.000000 0.630280 0.714514 255 255 255
-4.088421 -0.107635 4.515690 0.000001 0.258818 0.965926 0.911027 0.727870 255 255 255
-4.088421 0.186429 4.809754 -0.000001 -0.707106 -0.707108 0.925341 0.727806 255 255 255
-4.088421 0.186429 4.594485 0.000000 -0.965926 0.258820 0.955514 0.727870 255 255 255
-6.761659 -0.107635 4.888550 -0.000001 0.707106 -0.707107 0.810668 0.597425 255 255 255
-6.761659 -0.186429 4.594487 0.000001 0.707108 0.707105 0.969829 0.325296 255 255 255
-4.088421 0.215270 4.702119 -0.000000 -0.965926 -0.258819 0.941625 0.727809 255 255 255
-4.088421 0.107635 4.515690 0.000001 -0.707108 0.707105 0.880855 0.727806 255 255 255
-4.088421 -0.000000 4.917389 -0.000001 0.258818 -0.965926 0.826952 0.999939 255 255 255
-6.761659 -0.215270 4.702121 0.000000 0.965926 0.258820 0.986112 0.325299 255 255 255
-4.088421 -0.000000 4.486850 0.000001 -0.258818 0.965926 0.897139 0.727809 255 255 255
-4.088421 0.107635 4.888548 -0.000001 -0.258818 -0.965926 0.840840 1.000000 255 255 255
3 0 1 2
3 3 4 5
3 6 7 8
3 9 10 11
3 12 13 14
3 15 16 17
3 18 19 20
3 21 22 23
3 24 25 26
3 27 28 29
3 30 31 32
3 33 34 35
3 36 37 38
3 39 40 41
3 42 43 44
3 45 46 47
3 48 49 50
3 51 52 53
3 54 55 56
3 57 58 59
3 60 61 62
3 63 64 65
3 66 67 68
3 69 70 71
3 72 73 74
3 75 76 77
3 78 79 80
3 81 82 83
3 84 85 86
3 87 88 79
3 89 90 82
3 91 92 85
3 93 94 88
3 95 41 90
3 96 80 40
3 97 83 92
3 98 86 94
3 99 100 101
3 102 103 104
3 105 106 107
3 108 109 110
3 111 112 113
3 114 115 116
3 117 118 119
3 120 121 122
3 123 124 125
3 126 127 128
3 129 130 131
3 132 133 134
3 135 136 137
3 138 139 140
3 141 142 143
3 144 145 146
3 147 148 149
3 150 151 152
3 153 154 155
3 156 157 158
3 159 160 161
3 162 163 164
3 165 166 167
3 168 135 169
3 170 171 172
3 100 173 174
3 175 176 177
3 178 179 142
3 180 181 182
3 183 184 185
3 186 187 188
3 189 190 154
3 157 191 192
3 193 194 195
3 196 197 163
3 198 199 166
3 200 201 202
3 203 204 205
3 206 207 208
3 209 210 211
3 212 213 214
3 215 216 217
3 218 219 220
3 221 222 223
3 224 225 226
3 227 228 229
3 230 231 232
3 233 234 235
3 236 237 238
3 239 240 241
3 242 243 244
3 245 246 247
3 248 249 250
3 251 252 179
3 253 254 255
3 256 257 258
3 259 260 261
3 262 263 190
3 191 264 192
3 265 266 194
3 267 268 197
3 269 270 199
3 136 271 137
3 173 272 174
3 273 274 275
3 276 277 278
3 279 280 281
3 282 283 284
3 285 286 287
3 288 289 290
3 291 292 293
3 294 295 296
3 297 298 299
3 300 301 302
3 303 304 305
3 306 307 308
3 309 310 311
3 312 313 314
3 315 316 317
3 318 319 320
3 321 322 323
3 324 325 326
3 327 328 329
3 330 331 332
3 333 334 335
3 336 337 338
3 339 340 341
3 342 343 344
3 36 345 37
3 39 96 40
3 346 347 348
3 45 349 46
3 48 350 49
3 51 351 52
3 54 352 55
3 353 354 355
3 60 356 61
3 357 358 359
3 66 360 67
3 69 361 70
3 362 363 364
3 365 366 367
3 78 87 79
3 81 89 82
3 84 91 85
3 87 93 88
3 89 95 90
3 91 97 92
3 93 98 94
3 95 39 41
3 96 78 80
3 97 81 83
3 98 84 86
3 99 368 100
3 102 369 103
3 370 371 372
3 373 374 375
3 376 377 378
3 379 380 381
3 382 383 384
3 120 385 121
3 386 387 388
3 389 390 391
3 392 393 394
3 132 395 133
3 396 397 398
3 399 400 401
3 141 178 142
3 402 403 404
3 405 406 407
3 408 409 410
3 411 412 413
3 414 415 416
3 417 193 195
3 162 196 163
3 165 198 166
3 418 397 396
3 170 419 171
3 100 368 173
3 175 420 176
3 178 251 179
3 421 422 423
3 424 425 426
3 427 428 429
3 189 262 190
3 416 415 430
3 193 265 194
3 196 267 197
3 198 269 199
3 200 431 201
3 203 432 204
3 206 433 207
3 434 435 436
3 212 437 213
3 438 439 440
3 218 441 219
3 221 442 222
3 443 444 445
3 446 447 448
3 449 450 451
3 233 452 234
3 236 453 237
3 454 455 456
3 457 458 459
3 245 460 246
3 461 462 463
3 251 464 252
3 253 465 254
3 256 466 257
3 259 467 260
3 262 468 263
3 191 469 264
3 265 470 266
3 267 471 268
3 269 472 270
3 136 473 271
3 173 474 272
3 273 475 274
3 276 476 277
3 477 478 479
3 480 481 482
3 483 484 485
3 486 487 488
3 489 490 491
3 492 493 494
3 495 496 497
3 498 499 500
3 303 501 304
3 306 502 307
3 311 503 504
3 504 505 309
3 309 506 507
3 507 508 310
3 310 509 510
3 510 511 310
3 311 504 309
3 309 507 310
3 310 511 311
3 312 512 313
3 315 513 316
3 318 514 319
3 321 515 322
3 324 516 325
3 327 517 328
3 330 518 331
3 333 519 334
3 336 520 337
3 339 521 340
3 342 522 343
