ply
format ascii 1.0
comment Created by Blender 2.78 (sub 0) - www.blender.org, source file: ''
element vertex 24
property float x
property float y
property float z
property float nx
property float ny
property float nz
property float s
property float t
element face 6
property list uchar uint vertex_indices
end_header
10.000000 -10.000000 -10.000000 0.019000 -0.999819 0.000000 0.670918 0.001249
10.000000 -10.000000 10.000000 0.019000 -0.999819 0.000000 0.997937 0.003027
-10.000000 -10.000000 10.000000 0.019000 -0.999819 0.000000 0.998737 0.493396
-10.000000 -10.000000 -10.000000 0.019000 -0.999819 0.000000 0.668549 0.496375
-10.000000 -10.000000 -10.000000 -0.999819 -0.019000 0.000000 0.000627 0.500993
-10.000000 -10.000000 10.000000 -0.999819 -0.019000 0.000000 0.335008 0.502851
-10.000000 10.000000 10.000000 -0.999819 -0.019000 0.000000 0.333914 0.999501
-10.000000 10.000000 -10.000000 -0.999819 -0.019000 0.000000 0.000104 0.999404
-10.000000 10.000000 -10.000000 -0.019000 0.999819 0.000000 0.665938 0.498630
-10.000000 10.000000 10.000000 -0.019000 0.999819 0.000000 0.336184 0.498314
10.000000 10.000000 10.000000 -0.019000 0.999819 0.000000 0.334025 -0.000077
10.000000 10.000000 -10.000000 -0.019000 0.999819 0.000000 0.666013 -0.000161
10.000000 -10.000000 10.000000 0.999819 0.019000 0.000000 0.666760 0.502245
10.000000 -10.000000 -10.000000 0.999819 0.019000 0.000000 1.000019 0.501835
10.000000 10.000000 -10.000000 0.999819 0.019000 0.000000 0.998663 1.000922
10.000000 10.000000 10.000000 0.999819 0.019000 0.000000 0.664480 1.001299
10.000000 10.000000 -10.000000 0.000000 0.000000 -1.000000 -0.000200 0.497748
10.000000 -10.000000 -10.000000 0.000000 0.000000 -1.000000 0.001000 0.000451
-10.000000 -10.000000 -10.000000 0.000000 0.000000 -1.000000 0.333000 0.002703
-10.000000 10.000000 -10.000000 0.000000 0.000000 -1.000000 0.331000 0.498799
-10.000000 10.000000 10.000000 0.000000 0.000000 1.000000 0.337540 0.999622
-10.000000 -10.000000 10.000000 0.000000 0.000000 1.000000 0.334400 0.501502
10.000000 -10.000000 10.000000 0.000000 0.000000 1.000000 0.666453 0.501717
10.000000 10.000000 10.000000 0.000000 0.000000 1.000000 0.669283 0.999842
4 0 1 2 3
4 4 5 6 7
4 8 9 10 11
4 12 13 14 15
4 16 17 18 19
4 20 21 22 23
