ply
format ascii 1.0
comment Created by Blender 2.78 (sub 0) - www.blender.org, source file: ''
element vertex 24
property float x
property float y
property float z
property float nx
property float ny
property float nz
property float s
property float t
element face 6
property list uchar uint vertex_indices
end_header
-10.000000 -10.000000 -10.000000 1.000000 0.000000 0.000000 0.004725 0.011305
-10.000000 10.000000 -10.000000 1.000000 0.000000 0.000000 0.335118 0.011305
-10.000000 10.000000 10.000000 1.000000 0.000000 0.000000 0.335118 0.495046
-10.000000 -10.000000 10.000000 1.000000 0.000000 0.000000 0.004725 0.495046
-10.000000 10.000000 -10.000000 0.000000 -1.000000 -0.000000 0.004825 0.504854
10.000000 10.000000 -10.000000 0.000000 -1.000000 -0.000000 0.335018 0.504854
10.000000 10.000000 10.000000 0.000000 -1.000000 -0.000000 0.335018 0.985027
-10.000000 10.000000 10.000000 0.000000 -1.000000 -0.000000 0.004825 0.988795
10.000000 10.000000 -10.000000 -1.000000 0.000000 -0.000000 0.342262 0.501285
10.000000 -10.000000 -10.000000 -1.000000 0.000000 -0.000000 0.665297 0.505054
10.000000 -10.000000 10.000000 -1.000000 0.000000 -0.000000 0.672856 0.984827
10.000000 10.000000 10.000000 -1.000000 0.000000 -0.000000 0.339743 0.996132
10.000000 -10.000000 -10.000000 0.000000 1.000000 0.000000 0.662577 0.508822
-10.000000 -10.000000 -10.000000 0.000000 1.000000 0.000000 0.992541 0.508822
-10.000000 -10.000000 10.000000 0.000000 1.000000 0.000000 0.992541 0.988595
10.000000 -10.000000 10.000000 0.000000 1.000000 0.000000 0.662577 0.988595
-10.000000 10.000000 -10.000000 0.000000 0.000000 1.000000 0.667716 0.007537
-10.000000 -10.000000 -10.000000 0.000000 0.000000 1.000000 0.667716 0.495046
10.000000 -10.000000 -10.000000 0.000000 0.000000 1.000000 0.989921 0.491278
10.000000 10.000000 -10.000000 0.000000 0.000000 1.000000 0.992441 0.007537
10.000000 10.000000 10.000000 0.000000 0.000000 -1.000000 0.342262 0.491178
10.000000 -10.000000 10.000000 0.000000 0.000000 -1.000000 0.337223 0.007637
-10.000000 -10.000000 10.000000 0.000000 0.000000 -1.000000 0.667816 0.007637
-10.000000 10.000000 10.000000 0.000000 0.000000 -1.000000 0.667816 0.491178
4 0 1 2 3
4 4 5 6 7
4 8 9 10 11
4 12 13 14 15
4 16 17 18 19
4 20 21 22 23
